<?xml version="1.0" encoding="utf-8"?>
<!-- Generator: Adobe Illustrator 27.5.0, SVG Export Plug-In . SVG Version: 6.00 Build 0)  -->
<svg version="1.1" id="Layer_1" xmlns="http://www.w3.org/2000/svg" xmlns:xlink="http://www.w3.org/1999/xlink" x="0px" y="0px"
	 viewBox="0 0 4000 4000" style="enable-background:new 0 0 4000 4000;" xml:space="preserve">
<g>
	<rect style="fill-rule:evenodd;clip-rule:evenodd;fill:#FFFFFF;" width="4000" height="4000"/>
	<path style="fill-rule:evenodd;clip-rule:evenodd;" d="M2465.324,3313.124h713.716l-568.03-568.021
		c128.088-206.233,202.058-449.588,202.058-710.225c0-698.518-531.313-1272.934-1211.839-1341.198v503.802
		c403.772,65.15,712.161,415.233,712.161,837.396c0,121.375-25.488,236.793-71.408,341.197l-640.753-640.752v713.716
		C1889.262,2737.062,2177.291,3025.091,2465.324,3313.124 M824.258,3173.669h136.128V1254.623h-139.43v-189.245
		c209.04,0,378.5-169.46,378.5-378.505h265.607v567.75v1919.046h136.128v139.455H824.258V3173.669z"/>
</g>
</svg>
