<?xml version="1.0" standalone="no"?>
<!DOCTYPE svg PUBLIC "-//W3C//DTD SVG 20010904//EN"
 "http://www.w3.org/TR/2001/REC-SVG-20010904/DTD/svg10.dtd">
<svg version="1.0" xmlns="http://www.w3.org/2000/svg"
 width="5209.000000pt" height="5210.000000pt" viewBox="0 0 5209.000000 5210.000000"
 preserveAspectRatio="xMidYMid meet">

<g transform="translate(0.000000,5210.000000) scale(0.100000,-0.100000)"
fill="#000000" stroke="none">
<path d="M33298 45109 c-242 -26 -467 -183 -572 -401 -83 -173 -76 43 -76
-2522 l0 -2286 -2147 0 c-1182 -1 -2166 -3 -2188 -6 -234 -29 -431 -210 -480
-442 -12 -56 -15 -260 -15 -1224 l0 -1158 -52 22 c-207 84 -565 162 -912 199
-105 12 -126 17 -175 47 -123 74 -204 162 -271 293 -48 94 -68 171 -77 288
l-6 91 39 0 c69 0 172 28 242 65 122 64 217 183 266 334 43 133 49 180 51 371
l1 185 59 33 c69 38 91 60 104 107 19 69 2 98 -136 234 -147 144 -182 198
-217 328 -13 50 -27 101 -31 112 -4 13 -2 21 5 21 35 0 152 73 222 139 227
213 355 550 309 817 -38 223 -216 406 -476 493 -164 55 -353 78 -484 60 -113
-16 -209 -58 -376 -165 -82 -53 -195 -118 -250 -145 -119 -58 -330 -129 -470
-158 -120 -24 -306 -53 -312 -48 -2 3 18 89 44 194 25 104 44 196 41 205 -4 9
-112 69 -242 134 l-235 119 -3 139 c-2 82 1 144 7 152 6 7 109 67 230 133 121
65 224 126 229 134 11 17 -114 483 -141 526 -15 24 -16 24 -147 17 -72 -3
-192 -9 -267 -12 l-136 -7 -38 69 c-21 38 -53 91 -72 119 -18 27 -33 55 -33
61 0 6 61 111 136 233 99 161 134 226 129 241 -10 31 -372 375 -399 378 -23 3
-79 -31 -385 -233 -72 -47 -74 -48 -100 -32 -14 10 -72 42 -128 73 l-102 55 5
202 c2 111 6 227 9 258 7 90 11 88 -280 160 -192 48 -260 61 -273 53 -9 -5
-70 -114 -135 -242 l-117 -232 -148 0 -147 0 -126 233 c-106 195 -130 232
-150 235 -39 4 -512 -135 -527 -155 -10 -13 -12 -38 -8 -88 3 -38 8 -119 11
-180 3 -60 8 -146 11 -190 l5 -80 -63 -34 c-35 -19 -90 -52 -122 -73 -33 -21
-63 -38 -68 -38 -8 0 -58 30 -322 193 -107 66 -133 78 -152 71 -30 -12 -384
-379 -384 -398 0 -8 64 -113 142 -233 78 -120 141 -222 141 -228 0 -5 -19 -40
-42 -77 -23 -38 -53 -92 -68 -122 l-27 -55 -110 4 c-362 14 -413 15 -430 2
-20 -15 -149 -511 -140 -540 4 -11 87 -59 222 -126 119 -60 225 -115 234 -123
15 -11 18 -34 20 -157 l3 -144 -225 -123 c-123 -67 -230 -130 -237 -140 -17
-27 121 -520 152 -539 16 -11 63 -11 255 1 129 7 246 13 261 14 20 0 29 -9 48
-47 12 -27 45 -83 72 -126 l50 -78 -72 -117 c-40 -64 -101 -163 -135 -219 -35
-57 -64 -114 -64 -127 0 -18 45 -67 186 -203 102 -98 193 -182 201 -187 19
-11 22 -9 275 156 l196 129 54 -34 c29 -19 86 -51 127 -71 l73 -37 -7 -269 -7
-268 23 -15 c34 -20 480 -129 515 -125 27 3 37 19 149 236 l120 234 147 3 146
3 127 -233 c75 -138 133 -235 143 -237 17 -5 504 130 531 146 11 7 13 33 7
130 -20 369 -20 422 -1 430 17 6 180 103 216 128 12 8 38 -4 125 -57 240 -150
336 -205 352 -205 9 0 58 41 109 92 l92 92 46 -97 c102 -215 126 -334 124
-614 -2 -214 9 -272 64 -344 47 -62 113 -93 208 -98 l77 -3 6 -37 c3 -20 6
-52 6 -71 0 -58 38 -199 72 -268 72 -146 195 -233 337 -241 l74 -3 -6 -122
c-6 -125 -22 -197 -62 -276 -38 -76 -110 -163 -172 -209 -99 -74 -164 -98
-361 -131 -677 -115 -1379 -328 -1812 -551 -540 -277 -1033 -826 -1431 -1594
-322 -622 -611 -1471 -767 -2260 -58 -291 -57 -280 -33 -304 14 -14 29 -20 44
-16 34 8 215 35 232 35 13 0 14 -15 7 -102 -10 -146 -7 -493 7 -623 94 -920
504 -1630 1176 -2038 l90 -54 -1 -64 c-2 -118 -15 -613 -19 -719 -2 -58 -7
-208 -10 -335 -3 -126 -7 -288 -10 -360 -2 -71 -7 -229 -10 -350 -3 -121 -8
-287 -10 -370 -2 -82 -7 -242 -10 -355 -3 -113 -7 -259 -10 -325 -3 -66 -7
-237 -10 -380 -3 -143 -8 -291 -10 -330 -2 -38 -7 -207 -10 -375 -4 -168 -8
-321 -10 -340 -5 -39 17 -80 41 -80 9 0 66 20 127 44 62 24 125 46 141 50 l28
7 -6 -78 c-3 -43 -8 -127 -11 -188 -3 -60 -8 -141 -10 -180 -3 -38 -14 -230
-25 -425 -11 -195 -22 -391 -25 -435 -2 -44 -7 -129 -10 -190 -3 -60 -8 -135
-10 -165 -2 -30 -7 -111 -10 -180 -4 -69 -9 -133 -11 -142 -5 -17 -63 -18
-1029 -18 -974 0 -1026 -1 -1084 -19 -84 -26 -140 -61 -198 -124 l-49 -54
-194 -574 c-151 -443 -200 -579 -220 -597 -40 -38 -267 -186 -385 -251 -232
-128 -489 -227 -665 -257 -160 -26 -437 -15 -632 25 -310 65 -666 211 -935
384 l-72 46 41 88 c23 48 71 162 108 252 l67 164 74 26 c80 28 178 80 274 145
289 194 388 507 279 883 l-25 86 41 34 c46 40 116 135 152 208 50 100 108 321
108 411 0 28 -25 54 -51 54 -11 0 -223 -190 -534 -481 -495 -461 -517 -483
-551 -552 -51 -101 -149 -246 -243 -358 -77 -92 -345 -359 -361 -359 -12 0
-123 176 -170 270 -69 137 -108 249 -161 463 -172 694 -364 1150 -659 1564
-36 50 -83 118 -105 149 -54 79 -203 227 -298 298 -179 133 -392 236 -637 307
-130 37 -383 89 -438 89 -54 0 -53 11 25 140 41 69 78 132 83 140 7 12 21 2
72 -46 78 -75 118 -99 194 -119 119 -32 224 4 339 115 40 39 97 106 128 148
53 73 127 208 127 231 0 15 29 28 82 35 69 10 76 25 65 138 -5 51 -6 200 -3
331 l6 238 51 76 c97 143 172 328 205 501 22 116 15 325 -15 435 -52 198 -149
357 -320 528 -184 183 -382 303 -638 389 -346 114 -626 116 -908 5 -170 -67
-277 -80 -428 -51 -226 44 -506 227 -687 451 -96 118 -399 342 -621 459 -482
254 -945 279 -1334 73 -164 -88 -303 -211 -391 -347 -60 -93 -85 -147 -143
-305 -101 -273 -179 -398 -316 -502 -83 -64 -257 -151 -375 -188 -81 -26 -91
-27 -230 -20 -80 3 -181 10 -225 14 -125 13 -382 13 -469 1 -178 -25 -369
-101 -496 -198 -225 -171 -421 -475 -496 -772 -14 -57 -19 -109 -19 -220 1
-131 3 -153 27 -221 67 -190 178 -313 358 -397 214 -99 359 -244 465 -464 19
-40 73 -161 120 -268 103 -234 185 -382 282 -511 169 -224 364 -353 599 -394
48 -8 89 -17 91 -18 1 -2 -25 -26 -60 -54 -78 -64 -248 -239 -308 -318 -168
-219 -286 -463 -354 -729 -63 -247 -60 -125 -60 -2521 0 -2040 1 -2202 18
-2365 103 -997 483 -1924 1094 -2669 l61 -73 6 -157 c3 -86 8 -255 11 -376 5
-207 8 -315 20 -765 6 -226 12 -473 25 -990 5 -217 12 -480 15 -585 8 -268 14
-514 20 -775 3 -124 7 -297 10 -385 3 -88 7 -257 10 -375 3 -118 7 -298 10
-400 12 -477 16 -612 25 -985 5 -220 12 -474 15 -565 3 -91 7 -273 10 -405 12
-500 12 -505 59 -505 42 0 430 90 442 102 12 12 16 66 29 363 3 66 7 167 10
225 3 58 7 159 10 225 3 66 8 161 10 210 3 50 9 194 15 320 5 127 12 275 15
330 3 55 12 251 20 435 8 184 17 382 20 440 6 127 23 497 30 670 3 69 8 166
10 215 3 50 9 191 15 315 22 495 25 577 35 770 3 52 7 156 10 230 3 74 7 164
10 200 3 36 7 148 10 250 4 102 8 192 10 200 2 8 7 107 10 220 4 113 8 221 10
240 2 19 7 120 11 223 4 103 11 190 15 193 5 3 35 -13 66 -34 329 -222 793
-437 1213 -562 l155 -47 6 -49 c3 -27 9 -87 13 -134 4 -47 13 -155 21 -240 8
-85 17 -182 20 -215 5 -62 41 -452 50 -540 3 -27 9 -102 15 -165 6 -63 12
-137 15 -165 4 -46 18 -195 30 -335 5 -46 27 -287 51 -540 6 -66 50 -555 104
-1150 22 -239 42 -457 45 -485 3 -27 25 -273 50 -545 25 -272 47 -515 50 -540
5 -56 9 -98 40 -440 14 -151 27 -297 30 -325 5 -55 18 -197 74 -813 30 -324
41 -417 54 -429 14 -14 42 -13 293 6 175 13 282 26 292 33 13 11 14 49 8 268
-4 140 -9 289 -11 330 -3 41 -7 167 -10 280 -3 113 -8 264 -10 335 -2 72 -7
213 -10 315 -3 102 -7 248 -10 325 -5 134 -8 246 -20 615 -3 91 -14 453 -25
805 -11 352 -22 699 -25 770 -2 72 -7 218 -10 325 -3 107 -7 251 -10 320 -3
69 -7 202 -10 295 -10 328 -15 491 -20 635 -3 80 -7 228 -10 330 -3 102 -8
230 -10 285 -2 55 -7 206 -11 335 -3 129 -7 261 -9 293 l-2 57 1694 0 1695 0
-6 -53 c-5 -50 -30 -372 -41 -527 -3 -41 -12 -172 -20 -290 -8 -118 -17 -255
-20 -305 -12 -204 -18 -303 -30 -515 -3 -52 -7 -133 -10 -180 -5 -88 -11 -212
-20 -430 -3 -69 -7 -152 -10 -185 -2 -33 -7 -157 -10 -275 -4 -118 -8 -238
-10 -265 -2 -28 -7 -219 -11 -426 l-7 -376 134 -7 c74 -4 135 -8 136 -9 2 -3
-77 -300 -81 -304 -1 -2 -29 -8 -60 -14 -146 -27 -426 -161 -512 -245 -72 -70
-120 -171 -133 -279 -15 -120 -6 -645 13 -805 78 -659 283 -1287 585 -1793
151 -253 245 -363 359 -419 61 -30 74 -33 162 -33 85 0 101 3 149 28 72 38
143 111 180 185 96 190 217 806 275 1397 46 473 76 1125 56 1236 -15 82 -58
176 -105 227 l-37 41 58 256 c32 140 61 255 64 255 4 0 12 -37 19 -83 40 -272
84 -559 101 -672 11 -71 42 -283 70 -470 77 -511 98 -655 124 -825 13 -85 39
-254 56 -375 21 -142 38 -226 48 -237 14 -17 56 -18 609 -18 581 0 593 0 613
20 16 16 19 29 15 58 -3 20 -23 217 -45 437 -22 220 -42 423 -45 450 -6 58
-68 677 -126 1250 -22 220 -42 420 -44 445 -5 47 -139 1382 -200 1990 -20 195
-38 373 -40 395 -3 22 -12 110 -20 196 l-16 157 134 388 c74 214 156 454 182
534 26 80 53 159 61 175 14 33 262 800 373 1155 301 964 415 1532 372 1841
-44 305 -307 577 -796 823 l-130 65 115 0 116 1 131 -78 c366 -218 571 -448
645 -719 27 -102 29 -352 4 -528 -63 -436 -203 -943 -614 -2210 -138 -426
-148 -462 -136 -490 7 -16 84 -187 172 -380 276 -604 605 -1366 936 -2168
l157 -378 -5 -97 c-3 -53 -8 -178 -11 -277 -3 -99 -8 -243 -10 -320 -3 -77 -7
-216 -10 -310 -3 -93 -7 -226 -10 -295 -3 -69 -7 -199 -10 -290 -3 -91 -7
-241 -10 -335 -3 -93 -7 -217 -10 -275 -3 -58 -7 -204 -10 -325 -3 -121 -8
-258 -10 -305 -2 -47 -7 -173 -10 -280 -3 -107 -8 -247 -11 -311 -4 -95 -3
-119 10 -131 17 -17 94 -24 376 -34 210 -8 204 -10 214 71 7 63 62 633 72 740
3 44 8 87 9 95 1 8 10 101 20 205 10 105 19 197 22 205 2 8 27 -28 55 -80 353
-662 916 -1275 1513 -1651 187 -117 295 -155 420 -147 221 14 359 217 325 478
-62 476 -294 1236 -612 2000 -177 426 -223 498 -366 573 l-67 36 -17 78 c-80
374 -128 602 -128 612 0 6 14 14 30 18 17 3 33 9 36 14 12 20 -396 1725 -635
2653 -44 170 -79 312 -77 315 2 3 7 44 10 91 4 47 19 209 34 360 l27 275 70 8
c127 14 232 85 286 194 23 46 24 56 23 248 -4 727 -296 1489 -794 2070 -103
120 -312 321 -435 420 -104 84 -337 243 -416 284 -45 24 -48 28 -118 185 -40
89 -75 167 -78 174 -4 9 218 12 1092 12 l1098 0 -6 -210 c-5 -190 6 -798 18
-975 2 -38 7 -119 10 -180 3 -60 7 -135 10 -165 2 -30 7 -95 10 -145 14 -218
53 -660 80 -915 49 -447 95 -819 151 -1215 48 -341 122 -816 128 -822 1 -1 78
2 170 8 93 5 171 7 174 5 3 -3 16 -110 30 -238 21 -202 22 -233 10 -242 -27
-20 -114 -142 -171 -237 -217 -370 -394 -874 -606 -1724 -93 -374 -96 -393
-82 -470 28 -153 126 -272 267 -328 111 -43 493 -72 929 -71 434 2 760 35 870
89 112 54 204 182 224 310 11 74 6 107 -264 1775 -19 118 -53 325 -74 460 -31
192 -44 247 -58 257 -9 8 -23 11 -30 9 -10 -4 -13 43 -13 228 0 267 -8 246 96
246 l64 0 2 108 c0 59 2 121 3 137 1 17 5 140 9 275 3 135 8 292 11 350 2 58
7 191 10 295 3 105 8 235 10 290 3 55 7 179 10 275 3 96 7 213 10 260 2 47 7
166 10 265 3 99 7 214 10 255 2 41 7 152 10 245 3 94 8 197 10 230 2 33 7 132
10 220 3 88 8 185 10 215 2 30 7 114 10 185 3 72 8 159 10 195 2 36 7 115 10
175 3 61 8 133 10 160 2 28 9 132 16 232 l12 183 1018 0 1017 0 6 -82 c4 -46
13 -211 21 -368 8 -157 17 -321 20 -365 5 -85 11 -200 20 -380 3 -60 8 -139
10 -175 3 -36 7 -114 10 -175 3 -60 10 -191 15 -290 6 -99 12 -225 15 -280 3
-55 7 -136 10 -180 6 -111 14 -239 25 -455 13 -239 23 -424 35 -620 2 -47 7
-132 10 -190 23 -431 56 -974 60 -978 3 -3 53 -7 113 -10 59 -2 108 -6 110 -7
4 -4 32 -375 32 -427 0 -34 -2 -37 -30 -36 -17 1 -35 -3 -41 -9 -18 -18 -53
-242 -99 -638 -27 -237 -47 -581 -46 -805 1 -153 1 -156 33 -222 38 -81 105
-155 173 -192 54 -30 340 -99 1225 -296 1055 -235 1243 -265 1510 -240 250 22
483 84 666 176 117 58 168 93 243 163 80 77 101 119 100 206 -1 143 -108 318
-334 545 -206 208 -379 347 -685 552 -278 185 -381 273 -891 752 -212 199
-309 277 -401 323 -63 31 -79 35 -122 30 -27 -3 -72 -17 -100 -32 l-51 -25 0
72 c0 40 3 110 6 155 l7 81 46 17 c25 10 74 31 108 47 l61 30 66 336 c36 186
77 400 91 477 14 77 32 176 40 220 57 307 185 1104 235 1460 11 83 23 164 25
180 40 267 129 1059 155 1380 6 72 12 153 15 180 2 28 4 60 5 73 l0 22 1400 0
1400 0 0 -147 c1 -171 5 -239 26 -418 29 -241 102 -590 184 -870 l30 -104 -20
-123 c-27 -170 -38 -309 -36 -468 1 -126 3 -139 29 -192 35 -71 119 -150 183
-172 26 -9 75 -19 109 -22 l62 -6 27 -282 c15 -154 38 -389 51 -521 13 -132
26 -269 30 -305 5 -58 27 -275 40 -400 2 -25 18 -189 35 -365 l31 -320 -386
-914 c-212 -503 -385 -924 -385 -937 0 -16 13 -30 45 -49 29 -17 43 -30 38
-38 -4 -7 -41 -59 -83 -117 -42 -58 -179 -249 -305 -424 l-228 -319 -26 32
-26 32 -151 -31 c-653 -131 -1352 -451 -1990 -910 -161 -116 -394 -303 -415
-333 -76 -107 -34 -264 86 -318 38 -18 109 -19 1490 -19 1576 0 1493 -3 1613
56 76 37 171 134 211 215 52 107 84 300 96 589 6 138 -6 424 -18 436 -3 3 -36
-1 -73 -9 l-68 -16 347 347 347 347 44 -24 c24 -13 50 -22 58 -19 15 6 14 16
118 -1052 16 -168 32 -327 35 -355 3 -27 16 -165 30 -305 14 -140 27 -275 30
-300 2 -25 9 -99 16 -165 6 -66 15 -128 21 -139 10 -18 19 -18 182 -12 304 12
381 18 395 29 13 11 12 115 -4 507 -2 58 -7 193 -10 300 -3 107 -7 245 -10
305 -2 61 -7 205 -10 320 -3 116 -8 248 -10 295 -3 47 -7 182 -10 300 -3 118
-8 251 -10 295 -2 44 -7 184 -11 310 l-6 230 153 135 c84 74 227 207 318 296
l166 161 80 -131 c115 -187 292 -466 321 -504 14 -17 34 -32 45 -32 11 0 50
24 87 53 37 29 86 67 109 85 l42 33 195 -261 c178 -240 193 -263 185 -288 -5
-15 -30 -103 -55 -197 -128 -477 -271 -851 -387 -1018 -32 -46 -64 -74 -151
-131 -164 -108 -330 -290 -366 -400 -26 -81 17 -186 98 -233 l47 -28 410 2
c456 3 515 9 692 68 234 78 433 215 585 402 63 77 700 1079 754 1185 74 147
74 350 -2 501 -41 82 -100 154 -167 204 -34 25 -167 98 -295 161 l-234 116 6
101 c3 55 8 222 11 370 3 149 7 340 10 425 3 85 7 254 10 375 3 121 7 299 10
395 3 96 7 261 10 365 7 272 15 605 24 943 l8 294 154 304 154 304 1148 0
1147 0 0 -22 c0 -13 -9 -111 -20 -218 -107 -1067 -170 -1694 -170 -1705 0 -8
-9 -16 -20 -20 -43 -14 -179 -112 -241 -174 -105 -106 -177 -224 -218 -356
-12 -38 -55 -232 -96 -430 -40 -198 -89 -436 -109 -530 -60 -291 -182 -887
-297 -1445 -140 -682 -197 -957 -361 -1745 -123 -593 -133 -648 -132 -745 1
-186 56 -313 193 -450 97 -96 169 -138 297 -170 76 -20 121 -20 3713 -20 3998
0 3684 -5 3816 60 160 78 275 247 291 428 3 38 -3 173 -15 312 -12 135 -23
270 -26 300 -3 30 -12 143 -20 250 -9 107 -22 274 -30 370 -21 243 -22 256
-50 610 -14 173 -30 365 -35 425 -6 61 -14 171 -20 245 -6 74 -12 155 -15 180
-3 25 -12 135 -20 245 -9 110 -18 225 -21 255 -2 30 -31 388 -64 794 -33 407
-62 767 -65 800 -3 34 -14 171 -25 306 -11 135 -22 265 -25 290 -15 121 -67
199 -167 249 l-61 31 -345 0 -344 0 6 222 c3 123 8 304 11 403 3 99 7 266 10
370 3 105 12 456 20 780 8 325 17 673 20 775 3 102 10 372 16 600 l11 415 93
115 c520 646 877 1446 1015 2273 68 414 64 242 67 2671 4 2395 6 2298 -52
2540 -136 573 -514 1054 -1034 1316 -267 134 -562 200 -892 200 l-118 0 -89
58 c-348 228 -880 388 -1320 397 -78 1 -145 5 -148 8 -4 3 3 19 15 35 27 39
27 68 -1 86 -13 7 -103 33 -201 57 l-177 43 -40 125 c-87 280 -220 764 -220
800 0 4 21 15 46 25 93 38 302 228 457 414 242 292 367 576 350 797 -19 252
-178 477 -463 657 -179 112 -283 141 -545 153 -195 8 -220 17 -296 106 -105
122 -140 147 -237 168 -146 31 -245 -4 -336 -119 -57 -72 -83 -126 -106 -214
-39 -155 -35 -269 15 -382 25 -57 118 -164 142 -164 27 0 24 -29 -10 -82 -19
-29 -56 -89 -82 -133 -31 -51 -81 -112 -137 -167 -112 -109 -118 -126 -81
-229 l27 -77 -23 -123 c-37 -199 -35 -439 5 -561 36 -111 136 -177 280 -186
45 -2 87 -8 93 -11 9 -6 23 -170 57 -658 l6 -92 -33 -6 c-19 -3 -95 -14 -169
-25 -161 -23 -175 -32 -167 -115 3 -27 8 -60 12 -72 7 -23 6 -23 -81 -24 -49
-1 -105 -2 -124 -3 -19 -1 -147 -6 -285 -10 -469 -14 -538 -24 -715 -101 -41
-18 -108 -45 -149 -60 -106 -40 -204 -110 -314 -225 -335 -349 -617 -1042
-831 -2046 -51 -239 -129 -694 -124 -725 2 -15 34 -40 113 -85 61 -35 114 -65
119 -67 19 -7 -115 -500 -220 -809 -254 -743 -594 -1362 -1014 -1841 -149
-171 -400 -410 -414 -396 -3 3 -697 2041 -854 2509 -44 130 -47 137 -106 196
-34 33 -82 70 -109 83 -110 53 -22 51 -1867 51 -1151 0 -1727 -4 -1752 -10
-57 -16 -120 -70 -152 -129 -39 -73 -38 -139 4 -251 67 -179 1161 -3528 1170
-3582 11 -70 41 -141 80 -190 17 -20 27 -38 22 -40 -4 -2 -754 -2 -1668 0
l-1661 2 -12 273 c-7 149 -14 299 -16 332 -20 293 -31 1565 -24 2845 5 962 18
2221 23 2226 3 4 87 13 174 20 129 9 130 10 152 166 20 136 46 406 55 578 3
58 8 132 10 165 26 384 26 2424 0 2935 -1 30 -6 188 -10 350 -4 162 -8 306
-10 320 -2 14 -6 142 -10 285 -3 143 -8 267 -10 275 -2 8 -6 110 -10 225 -4
116 -8 228 -10 250 -2 22 -6 132 -10 245 -4 113 -9 213 -12 223 -2 10 1 40 7
68 l12 49 2596 0 c2872 0 2668 -4 2809 65 137 68 252 214 288 366 12 54 15
175 15 756 l0 693 4223 2 c3996 3 4225 4 4282 21 251 73 430 248 516 502 l24
70 3 2509 2 2508 233 -6 c127 -3 279 -8 337 -11 58 -3 215 -7 350 -10 135 -3
284 -8 332 -11 80 -6 88 -4 109 17 22 22 22 24 15 208 -4 102 -9 209 -11 236
-18 211 -29 308 -46 430 -148 1042 -563 2031 -1211 2883 l-108 142 0 938 c0
606 -4 960 -11 1002 -26 161 -86 277 -209 400 -96 97 -195 155 -327 193 l-78
22 -4850 1 c-2667 1 -4884 -2 -4927 -7z m5717 -176 c-2 -49 -4 -145 -4 -215
l-1 -128 -694 0 -695 0 -15 -22 c-13 -19 -14 -25 -2 -43 13 -20 21 -20 711
-23 l698 -2 -6 -83 c-4 -45 -7 -157 -7 -249 l0 -168 -2893 0 c-2237 0 -2896
-3 -2905 -12 -19 -19 -14 -55 10 -72 20 -14 312 -16 2905 -16 l2882 0 -5 -132
c-2 -73 -9 -421 -14 -773 -15 -960 -20 -1230 -25 -1450 -3 -110 -8 -391 -11
-625 -6 -356 -4 -427 7 -437 8 -6 55 -19 104 -28 813 -150 1434 -774 1551
-1557 8 -57 20 -108 27 -115 12 -11 112 -16 537 -28 191 -5 401 -12 670 -20
85 -3 254 -7 375 -10 121 -3 272 -8 335 -10 63 -2 216 -7 340 -10 124 -3 277
-8 340 -10 63 -2 172 -5 243 -6 l127 -2 0 -2486 c0 -2733 4 -2545 -61 -2676
-62 -127 -168 -232 -295 -294 -135 -66 228 -61 -4391 -61 l-4203 0 0 593 0
594 61 139 c34 76 87 205 118 285 l57 147 89 -69 c104 -81 378 -265 449 -303
35 -19 53 -23 66 -16 10 5 197 285 416 622 219 337 439 676 489 753 519 797
685 1056 685 1073 0 11 -20 36 -47 58 -369 295 -596 656 -683 1084 -24 119
-41 332 -34 422 9 118 25 245 38 300 7 30 9 64 5 75 -7 19 -452 174 -1514 526
l-220 73 -40 74 c-54 99 -145 189 -238 235 -115 57 -163 63 -519 64 -175 1
-328 5 -340 10 -13 5 -32 5 -43 0 -11 -4 -173 -8 -360 -8 l-340 -1 2 892 c2
491 4 1534 5 2318 l3 1425 33 80 c85 209 267 358 484 394 30 5 1325 9 2899 10
l2846 1 -2 -87z m4140 59 c166 -56 305 -172 375 -315 74 -151 70 -99 68 -1096
l-3 -893 -105 118 c-228 259 -535 548 -822 777 -139 111 -390 295 -415 304 -7
3 -13 8 -13 12 0 3 200 5 444 3 424 -2 444 -2 467 17 20 16 22 23 14 47 l-10
29 -540 5 -540 5 -155 94 c-143 88 -575 313 -715 374 l-60 26 292 0 c288 1
292 1 304 22 8 16 8 28 0 45 l-11 24 -402 0 -403 0 -165 60 c-408 150 -881
272 -1335 344 l-150 24 1905 -1 1905 -2 70 -23z m-3900 -72 c740 -92 1505
-325 2187 -666 2110 -1055 3455 -3086 3535 -5337 l6 -179 -134 6 c-74 3 -226
8 -339 11 -113 3 -268 7 -345 10 -77 3 -232 7 -345 10 -113 3 -272 8 -355 10
-174 6 -1080 32 -1395 40 -118 3 -255 7 -305 10 -49 3 -214 7 -365 11 -151 3
-304 7 -340 9 -36 3 -123 5 -195 5 -71 0 -136 4 -142 8 -7 4 -24 65 -38 135
-101 511 -396 942 -845 1239 -201 133 -490 253 -709 295 l-94 18 7 495 c4 272
9 572 11 665 3 94 7 319 10 500 10 640 15 952 20 1160 2 116 7 415 11 665 3
250 8 473 9 495 2 22 4 122 4 222 l1 183 28 -5 c15 -2 68 -9 117 -15z m-16275
-905 c101 -26 187 -48 191 -51 7 -4 3 -322 -6 -443 -2 -35 0 -71 5 -81 6 -10
51 -39 101 -65 50 -25 123 -66 162 -91 39 -24 77 -44 84 -44 7 0 109 63 228
140 118 77 218 140 222 140 4 0 74 -66 154 -146 l146 -146 -133 -217 c-74
-120 -134 -226 -134 -236 0 -10 26 -59 59 -109 32 -50 72 -118 89 -152 17 -33
38 -66 46 -73 14 -11 60 -12 272 -1 149 8 258 9 263 4 9 -10 111 -366 111
-386 0 -7 -99 -66 -220 -132 -201 -108 -257 -146 -245 -167 3 -4 5 -85 6 -181
0 -95 3 -179 8 -186 4 -7 111 -65 237 -130 l230 -117 -41 -165 c-23 -91 -44
-177 -48 -191 -10 -39 -44 -44 -310 -44 l-239 0 -50 -95 c-27 -52 -70 -127
-94 -166 -24 -40 -44 -78 -44 -86 0 -8 32 -63 71 -123 l71 -110 -12 -86 c-11
-85 -9 -119 12 -211 l11 -47 -78 -86 c-50 -56 -83 -84 -92 -80 -8 3 -107 61
-219 130 -111 69 -210 128 -218 131 -9 3 -62 -23 -128 -64 -62 -38 -138 -82
-168 -98 l-55 -29 0 -105 c0 -58 4 -179 8 -270 l9 -166 -198 -56 c-109 -31
-201 -55 -205 -53 -3 2 -59 102 -124 222 -65 120 -124 223 -131 229 -12 10
-372 10 -400 0 -7 -3 -65 -107 -129 -233 -65 -125 -119 -229 -120 -231 -1 -1
-95 20 -208 49 -131 32 -204 55 -202 63 2 6 6 124 10 262 7 283 13 259 -78
301 -28 13 -100 54 -159 89 -90 56 -110 64 -127 55 -11 -6 -114 -72 -228 -146
l-208 -134 -149 148 -149 149 88 143 c49 79 111 181 138 227 l50 82 -33 53
c-19 28 -62 102 -97 162 -34 61 -67 116 -73 123 -13 15 -7 15 -300 -2 -129 -8
-236 -13 -236 -13 -1 2 -45 154 -110 388 -4 13 47 45 220 138 123 67 228 127
233 134 6 7 8 93 5 209 l-4 198 -234 120 c-129 67 -234 124 -234 128 0 6 63
259 91 364 l9 37 269 -6 269 -6 51 102 c29 56 71 134 96 172 27 44 41 77 37
88 -3 9 -48 81 -100 161 -52 80 -114 175 -137 211 l-43 65 147 152 146 152
220 -135 c121 -74 227 -135 236 -135 9 0 47 20 84 45 37 25 110 68 161 96 103
56 111 67 100 142 -6 43 -20 326 -21 406 l0 44 185 53 c102 30 193 53 203 51
13 -1 56 -70 141 -227 l122 -225 199 0 c117 0 203 4 211 10 12 10 80 138 188
352 34 69 61 111 68 108 7 -2 96 -25 198 -50z m1483 -3416 c-75 -66 -154 -160
-195 -232 -56 -98 -49 -96 -93 -31 l-38 59 32 55 c17 30 48 88 68 128 l37 72
124 0 123 0 -58 -51z m1782 -347 c178 -85 334 -323 399 -615 31 -133 125 -272
270 -397 72 -62 96 -96 82 -119 -4 -5 -40 -28 -81 -51 -41 -23 -78 -47 -82
-53 -4 -7 -8 -109 -8 -227 -1 -187 -4 -225 -22 -291 -56 -201 -158 -322 -312
-370 -211 -65 -503 38 -701 248 -36 37 -79 86 -95 107 -26 34 -35 38 -58 32
-69 -17 -31 -101 106 -233 122 -118 263 -200 413 -241 l69 -19 12 -119 c14
-128 40 -229 80 -309 87 -171 230 -310 401 -387 l66 -30 -55 -34 c-213 -134
-503 -234 -779 -269 -84 -11 -354 -8 -455 4 -133 17 -304 57 -438 102 -132 44
-299 118 -292 129 2 4 46 24 97 45 51 21 118 54 148 73 126 78 237 219 287
365 l28 82 0 439 0 439 -54 28 c-120 62 -182 162 -182 293 0 109 62 195 152
212 43 8 191 88 235 126 61 54 56 87 -43 318 -29 69 -51 130 -49 136 7 18 84
50 216 88 167 49 241 80 279 120 29 29 34 44 42 112 30 254 147 349 324 266z
m7954 -463 c153 -35 285 -158 332 -310 18 -59 19 -120 19 -1756 l0 -1696 -77
-96 c-141 -176 -256 -304 -440 -491 l-183 -185 0 106 c0 68 -4 109 -12 117
-19 19 -1521 17 -1537 -1 -8 -10 -12 -195 -13 -628 l-3 -613 -105 -32 c-58
-17 -117 -34 -132 -38 l-28 -6 0 2285 c0 2272 0 2285 -20 2305 -20 20 -33 20
-763 20 -626 0 -746 -2 -763 -14 -19 -14 -19 -49 -19 -2270 0 -1999 -2 -2256
-15 -2255 -8 0 -67 21 -130 47 -157 64 -157 60 -11 264 61 86 111 163 111 173
0 10 -49 68 -110 130 l-110 111 0 1222 c0 1209 0 1222 -20 1242 -20 20 -33 20
-763 20 -626 0 -746 -2 -763 -14 -18 -14 -19 -34 -24 -480 l-5 -465 -160 135
c-183 155 -357 290 -463 358 l-72 47 2 1212 3 1212 23 57 c53 131 157 229 290
275 l67 22 2925 0 c1936 1 2940 -3 2969 -10z m2058 -913 c1 -1 -5 -38 -14 -82
-21 -103 -24 -493 -5 -604 82 -466 315 -872 669 -1167 l60 -50 -435 -669
c-239 -368 -493 -760 -566 -871 -72 -112 -216 -333 -319 -493 l-189 -290 -26
14 c-73 38 -340 225 -493 346 -19 15 -19 16 3 80 12 36 40 128 63 205 40 137
42 140 71 142 380 31 648 190 788 469 146 291 112 555 -97 766 l-68 68 105
118 c240 269 367 432 420 542 28 60 31 73 31 165 -1 80 -5 111 -23 156 -25 63
-55 99 -81 99 -35 0 -570 -427 -701 -559 -188 -190 -409 -475 -651 -839 l-149
-224 0 1610 0 1610 802 -269 c441 -149 803 -271 805 -273z m-4339 -2473 l-3
-2267 -38 -8 c-120 -25 -290 -39 -478 -39 -290 0 -472 19 -731 78 l-118 26 0
2239 0 2238 685 0 685 0 -2 -2267z m4242 1171 c0 -39 -7 -90 -15 -115 -28 -79
-186 -284 -429 -554 -65 -71 -124 -140 -132 -152 -20 -28 -7 -53 40 -82 57
-35 153 -146 185 -213 58 -124 63 -251 15 -398 -67 -201 -200 -352 -389 -441
-105 -49 -175 -67 -320 -80 -66 -6 -126 -14 -133 -17 -8 -4 -38 -90 -67 -192
-203 -701 -560 -1422 -973 -1970 -594 -785 -1313 -1262 -2168 -1435 -700 -141
-1534 -49 -2395 267 -111 40 -138 54 -135 67 3 9 86 306 186 661 99 355 184
654 189 665 6 15 459 653 477 674 2 2 46 -15 98 -38 213 -93 476 -165 741
-202 184 -26 557 -36 720 -20 647 65 1309 377 1972 930 423 352 888 856 1073
1161 228 378 580 854 800 1084 68 71 461 398 605 503 l30 22 12 -27 c7 -15 12
-59 13 -98z m-6070 -1370 l0 -1136 -338 333 c-368 364 -704 686 -904 868
l-128 116 0 477 0 478 685 0 685 0 0 -1136z m-3055 961 c289 -36 622 -123 790
-207 323 -162 1080 -837 2133 -1902 l343 -347 -31 -42 c-17 -23 -151 -210
-297 -415 -147 -204 -268 -371 -269 -369 -2 2 14 65 35 140 l39 137 -1772 -2
-1771 -3 -217 -775 c-119 -426 -281 -1002 -359 -1280 -78 -278 -146 -519 -150
-536 -9 -30 -14 -32 -127 -62 -351 -92 -639 -133 -939 -132 -513 1 -877 133
-1169 424 -256 257 -430 657 -478 1096 -3 25 -8 70 -11 100 -3 30 -6 121 -6
202 -1 130 -3 148 -19 163 -24 21 -18 23 -265 -88 -1285 -578 -1345 -603
-1460 -621 -61 -10 -161 -26 -224 -37 -63 -10 -116 -17 -119 -15 -6 7 57 302
113 531 277 1126 702 2079 1211 2715 193 240 426 460 644 605 370 247 1037
483 1766 626 156 30 162 31 182 13 34 -29 140 -84 249 -130 421 -177 859 -228
1273 -148 134 26 343 98 485 168 137 67 315 178 315 197 0 6 11 8 28 5 15 -3
50 -8 77 -11z m6713 -1894 l-3 -116 -120 -103 c-226 -195 -535 -416 -760 -544
-151 -86 -448 -228 -476 -228 -5 0 -9 228 -9 555 l0 555 658 2 c361 2 670 1
685 -1 l28 -3 -3 -117z m802 -2364 c0 -1184 -1 -1238 -19 -1296 -48 -154 -183
-278 -338 -311 -32 -7 -903 -9 -2634 -8 l-2585 3 119 425 c66 234 120 426 122
428 1 1 42 -13 91 -31 498 -189 1062 -318 1511 -344 175 -11 494 -7 633 7 644
65 1231 295 1742 682 l77 58 272 0 c239 0 275 2 291 17 17 15 18 37 18 285 l0
269 63 77 c199 241 449 622 592 904 22 42 41 75 43 74 1 -2 2 -559 2 -1239z
m-11870 231 c0 -116 22 -329 46 -445 171 -845 669 -1323 1469 -1412 103 -11
392 -11 520 0 281 26 673 113 1019 226 286 93 404 140 411 163 3 11 -3 48 -14
83 -25 81 -65 282 -82 407 -17 132 -18 434 0 483 l13 39 25 -24 c34 -32 118
-207 143 -299 11 -42 27 -116 35 -163 24 -150 83 -215 240 -267 61 -19 95 -23
255 -25 270 -4 479 27 885 131 243 62 318 74 447 76 158 1 228 -20 228 -70 0
-100 -273 -307 -715 -543 -306 -162 -561 -269 -795 -331 -105 -28 -130 -31
-275 -31 -158 -1 -161 -1 -208 27 -55 33 -77 30 -109 -16 -45 -65 -210 -258
-332 -390 -250 -269 -571 -545 -854 -735 -743 -500 -1452 -661 -2162 -491
-590 142 -1088 461 -1402 901 -266 370 -424 822 -483 1379 -16 156 -15 653 2
670 6 6 131 65 279 131 454 202 1204 538 1304 584 52 23 98 43 103 43 4 1 7
-45 7 -101z m11076 -184 c-3 -9 -6 -87 -6 -175 l0 -159 -181 0 -180 0 63 56
c35 32 115 110 178 175 110 114 139 137 126 103z m-4902 -2499 c4 -99 9 -209
11 -245 2 -36 6 -148 10 -250 3 -102 8 -230 10 -285 3 -55 7 -192 10 -305 3
-113 8 -259 10 -325 18 -479 27 -1322 21 -2062 -4 -461 -8 -858 -10 -883 -2
-25 -7 -108 -10 -185 -4 -77 -9 -165 -11 -195 -13 -154 -27 -299 -42 -422
l-16 -136 -31 -6 c-39 -7 -508 -43 -681 -52 -209 -11 -786 -8 -965 5 -191 15
-398 43 -520 71 -47 11 -177 52 -290 90 -574 194 -1363 334 -2205 390 -133 9
-929 6 -1015 -4 -434 -49 -613 -84 -858 -166 l-143 -47 5 66 c3 36 8 183 11
326 3 143 8 321 10 395 3 74 12 378 20 675 8 297 17 619 20 715 2 96 7 261 10
365 3 105 7 258 10 340 2 83 7 249 10 370 3 121 7 272 10 335 2 63 7 229 11
368 4 138 9 252 11 252 2 0 21 -9 42 -20 116 -58 391 -154 561 -195 194 -46
281 -57 485 -62 226 -6 334 3 558 48 471 94 997 355 1461 726 l79 63 1613 0
1613 0 14 48 c8 26 45 159 83 295 l69 248 6 -83 c4 -46 10 -164 13 -263z
m11174 -929 c269 -144 343 -195 392 -268 67 -100 90 -220 68 -355 -13 -75 -5
-110 27 -125 37 -17 68 -2 105 49 87 122 196 213 255 213 59 0 96 -61 97 -158
0 -95 -31 -172 -97 -238 -45 -46 -64 -56 -137 -78 -120 -37 -168 -91 -168
-190 0 -50 29 -100 76 -131 27 -18 32 -28 42 -96 22 -140 244 -915 270 -941 4
-4 84 -27 176 -49 l168 -41 -39 -40 c-219 -226 -607 -303 -1048 -207 -275 60
-482 161 -535 263 -14 25 -21 48 -17 52 4 4 78 18 164 31 223 33 207 20 199
156 -4 62 -9 139 -12 172 -11 144 -34 491 -34 525 0 35 2 38 43 49 67 20 162
70 192 101 21 22 26 35 21 54 -10 39 -47 44 -88 12 -81 -61 -210 -100 -335
-99 -105 0 -177 32 -211 92 -48 85 -54 365 -12 561 26 122 25 137 -6 215 l-26
66 83 83 c46 45 103 114 127 152 121 193 142 224 150 224 5 0 54 -24 110 -54z
m-25813 -2096 c334 -72 409 -82 484 -60 19 5 36 8 38 7 2 -2 -2 -84 -8 -183
-6 -98 -11 -300 -12 -449 l-2 -269 -45 -9 c-56 -11 -61 -16 -98 -104 -61 -147
-227 -356 -317 -398 -22 -10 -64 -21 -92 -23 -99 -8 -207 69 -337 241 -57 77
-75 91 -101 81 -36 -14 -38 -44 -6 -96 17 -27 31 -52 31 -54 0 -3 -46 -83
-102 -177 -127 -215 -141 -249 -141 -352 0 -93 18 -148 85 -257 l42 -71 -84
-80 c-47 -44 -135 -126 -197 -184 l-111 -104 -411 312 c-226 171 -411 315
-411 319 0 3 123 137 273 296 569 605 807 865 807 882 0 9 -33 51 -74 93 -114
117 -149 206 -110 280 18 36 98 89 133 89 34 0 104 -75 126 -136 31 -83 63
-104 99 -65 15 16 15 27 5 92 -17 107 -7 252 20 314 45 102 76 117 221 111 71
-3 166 -18 295 -46z m29215 -955 c699 -124 1274 -662 1460 -1366 62 -236 60
-132 60 -2486 0 -1401 -3 -2195 -10 -2283 -92 -1181 -585 -2256 -1415 -3085
-741 -740 -1718 -1214 -2730 -1325 -55 -6 -113 -13 -130 -15 -16 -3 -139 -8
-272 -12 -238 -6 -243 -6 -243 14 0 29 128 885 133 889 1 1 47 12 102 24 190
42 501 121 685 175 377 110 459 146 602 269 242 206 459 562 608 993 44 128
57 154 109 218 105 131 242 355 300 491 70 163 229 753 309 1144 116 562 185
1150 205 1735 2 77 5 86 74 225 149 304 280 643 383 993 33 111 65 226 72 256
9 39 18 55 31 59 21 5 21 12 1 297 -8 128 -55 710 -59 740 -2 17 -6 64 -10
105 -6 87 -31 327 -46 450 -5 47 -12 105 -15 130 -16 134 -58 411 -80 520 -63
316 -185 559 -391 779 l-87 94 129 -6 c72 -3 173 -13 225 -22z m-29617 -850
c262 -44 436 -98 642 -200 223 -110 410 -259 533 -425 180 -245 274 -392 366
-577 167 -336 270 -627 391 -1108 78 -311 153 -493 283 -688 27 -39 52 -77 55
-84 13 -21 -301 -240 -563 -393 -152 -89 -457 -240 -626 -311 -68 -29 -130
-59 -137 -67 -14 -17 -16 -170 -4 -320 22 -294 127 -652 268 -917 86 -162 85
-161 192 -120 332 129 684 379 960 682 186 205 370 459 506 701 35 61 65 112
66 112 2 0 52 -30 112 -66 584 -356 1256 -496 1733 -363 224 63 555 221 778
371 39 27 72 45 72 40 0 -5 -69 -213 -154 -463 l-155 -454 -88 -84 c-412 -392
-876 -673 -1322 -801 -493 -142 -1001 -116 -1491 77 -132 52 -308 139 -434
213 -84 50 -88 51 -112 36 -13 -9 -24 -25 -24 -35 0 -36 169 -516 257 -727 3
-8 -17 -13 -58 -16 -84 -6 -92 -19 -85 -123 7 -100 46 -186 111 -243 l44 -39
-752 -2 c-414 -1 -790 -3 -837 -5 -47 -2 -233 4 -415 15 -181 10 -375 21 -430
24 -55 3 -136 7 -180 10 -166 10 -264 15 -400 21 -77 3 -156 8 -175 9 -110 10
-388 20 -535 19 -154 -1 -178 -3 -260 -28 -337 -101 -587 -341 -688 -661 -61
-195 -160 -721 -182 -965 -3 -36 -8 -87 -11 -115 -10 -87 -7 -397 5 -482 15
-105 45 -218 76 -288 l24 -55 -22 5 c-12 3 -69 14 -127 26 -218 44 -459 140
-615 245 -338 227 -517 579 -532 1049 -9 271 10 343 186 700 136 274 194 416
251 610 80 275 137 627 156 960 3 66 8 136 10 155 2 19 4 179 4 355 l2 320
-89 175 c-207 406 -339 778 -418 1176 -88 437 -91 909 -9 1298 55 259 121 446
261 741 111 233 172 326 297 450 234 233 512 363 996 465 134 29 654 119 780
135 l54 7 -32 -36 c-35 -40 -38 -54 -19 -79 25 -34 923 -707 942 -707 19 0
341 289 462 415 51 52 51 51 -28 177 -29 46 -58 103 -66 127 -14 46 -18 133
-6 144 11 12 56 8 206 -18z m-2950 -223 l45 -28 -82 -42 c-267 -137 -485 -345
-604 -577 -66 -129 -164 -340 -202 -434 -84 -212 -156 -494 -192 -751 -20
-146 -17 -651 5 -809 72 -509 213 -952 467 -1461 l92 -185 -6 -335 c-4 -184
-8 -357 -11 -385 -2 -27 -9 -111 -15 -185 -27 -324 -86 -643 -167 -894 -54
-168 -114 -309 -240 -560 -155 -310 -191 -450 -180 -706 17 -403 146 -727 385
-966 223 -223 557 -374 980 -443 101 -17 128 -25 162 -50 214 -155 1027 -273
2275 -331 121 -5 267 -12 325 -15 438 -20 2153 -29 2357 -13 l92 8 -14 -39
c-38 -110 -86 -428 -129 -866 -15 -143 -28 -280 -31 -305 -2 -25 -7 -80 -11
-123 l-7 -77 -1746 1 c-960 1 -1791 5 -1846 10 -822 70 -1527 312 -2195 754
-896 592 -1571 1482 -1908 2515 -105 321 -167 603 -214 975 -22 169 -22 182
-24 2400 -3 2404 -6 2282 48 2510 99 428 375 843 721 1089 l59 41 211 0 c374
1 585 60 832 233 l100 70 312 1 312 1 44 -28z m14901 -1012 c4 -47 13 -218 21
-380 8 -162 17 -324 20 -360 2 -36 7 -117 10 -180 3 -63 8 -149 10 -190 3 -41
7 -131 10 -200 3 -69 7 -154 10 -190 3 -36 7 -114 10 -175 6 -130 14 -267 20
-385 3 -47 7 -128 10 -180 3 -52 7 -133 10 -180 11 -203 14 -247 40 -755 8
-159 17 -328 20 -375 3 -47 12 -215 20 -375 8 -159 17 -321 20 -360 2 -38 7
-128 10 -200 4 -71 8 -148 10 -170 2 -22 7 -115 11 -207 l7 -168 -817 0 c-449
0 -816 2 -816 4 0 2 33 97 74 212 217 618 365 1177 446 1694 106 674 368 1712
715 2830 59 190 110 353 112 363 8 28 11 18 17 -73z m-7994 -317 c-36 -130
-92 -227 -187 -320 -46 -44 -83 -87 -83 -94 0 -7 11 -40 24 -73 56 -139 73
-336 42 -470 -19 -82 -71 -183 -126 -247 -79 -92 -316 -234 -439 -263 -35 -8
-64 -16 -66 -18 -2 -2 -22 -53 -44 -115 -55 -149 -126 -308 -215 -478 -319
-613 -729 -1071 -1207 -1348 -125 -72 -297 -150 -315 -143 -16 6 -65 101 -124
241 -120 281 -189 605 -186 863 l1 104 155 67 c314 136 679 337 932 514 198
139 326 246 489 407 202 201 326 362 433 561 39 72 64 98 486 491 245 228 446
411 448 407 2 -5 -6 -43 -18 -86z m19853 -558 l227 -130 0 -61 c0 -85 -27
-363 -51 -524 -157 -1043 -612 -1913 -1349 -2577 l-115 -103 -299 2 -300 3
-83 243 -83 243 32 27 c626 518 1137 1332 1475 2352 56 172 122 398 163 565
18 72 34 136 36 143 4 15 -14 24 347 -183z m5379 -5 c348 -78 634 -143 636
-145 6 -6 -56 -227 -114 -407 -270 -834 -637 -1473 -1144 -1992 -358 -366
-697 -612 -1164 -842 -650 -321 -1451 -522 -2343 -586 l-41 -3 5 66 c8 99 8
99 -244 99 -129 0 -203 4 -203 10 0 6 20 10 43 10 94 0 190 49 246 127 62 85
70 187 22 290 l-30 64 27 10 c15 6 56 21 92 34 365 127 856 350 1188 537 1036
584 1770 1372 2175 2334 59 142 121 311 163 447 16 54 32 87 40 87 8 0 298
-63 646 -140z m-8591 -83 c31 -15 77 -49 101 -75 39 -42 51 -66 95 -197 243
-727 1198 -3533 1206 -3542 7 -10 313 -13 1468 -13 826 0 1459 -4 1459 -9 0
-5 -7 -28 -15 -51 -31 -87 -109 -164 -195 -195 -38 -13 -418 -15 -3174 -15
-2022 0 -3144 4 -3166 10 -114 32 -208 142 -226 267 -6 42 -1127 3475 -1185
3628 -28 76 -21 121 27 175 25 27 48 42 76 47 22 4 812 6 1756 3 l1717 -5 56
-28z m-10785 -127 c41 -26 79 -100 70 -141 -3 -16 -25 -84 -49 -152 -24 -67
-284 -854 -578 -1749 l-534 -1628 -1877 0 c-1033 0 -1878 3 -1878 7 0 21 1195
3523 1211 3549 24 40 73 77 141 109 l53 25 1704 0 c1697 0 1704 0 1737 -20z
m-4756 -3094 c-105 -307 -192 -561 -194 -565 -2 -3 -600 -5 -1328 -3 l-1324 2
-16 43 c-9 23 -41 105 -71 182 -30 77 -75 200 -101 273 l-46 133 83 -45 c182
-99 442 -199 649 -250 214 -53 286 -60 563 -60 228 0 276 2 388 22 270 49 479
118 742 247 256 125 525 306 755 508 47 41 86 74 87 73 1 -1 -83 -253 -187
-560z m19176 238 c160 -85 338 -176 396 -203 142 -67 192 -126 192 -232 1 -44
-5 -64 -26 -97 -41 -62 -96 -89 -204 -101 -80 -8 -105 -16 -194 -61 l-102 -51
-110 0 c-119 1 -137 4 -418 86 -277 81 -261 79 -387 50 -312 -70 -582 -73
-694 -9 -19 11 -42 37 -53 57 -17 36 -17 41 -2 82 51 134 389 323 872 488 72
25 159 60 195 78 94 48 190 80 219 73 14 -3 156 -75 316 -160z m3389 -452
c146 -127 282 -293 379 -463 96 -166 111 -185 162 -205 62 -24 112 -10 227 63
48 30 90 53 92 51 3 -2 12 -40 22 -84 28 -133 23 -418 -11 -609 -90 -504 -330
-1021 -606 -1308 -158 -165 -231 -209 -481 -287 -297 -93 -904 -249 -917 -235
-2 2 5 68 17 147 12 79 33 215 46 303 33 222 74 492 144 960 34 220 61 420 61
444 0 55 -25 152 -55 211 -89 175 -299 314 -546 361 -51 10 -810 22 -1212 19
l-28 0 26 34 c29 39 42 42 170 51 815 56 1646 260 2275 560 74 35 137 64 140
64 3 1 46 -34 95 -77z m-5085 2 c-16 -41 -11 -112 10 -153 24 -49 90 -106 144
-125 37 -13 11 -14 -293 -13 l-334 2 -53 158 -52 157 294 0 294 0 -10 -26z
m1060 -260 c52 -14 97 -28 99 -30 2 -2 -106 -4 -240 -3 l-244 0 111 23 c62 13
118 26 125 29 27 10 55 7 149 -19z m-16098 -204 l1208 0 0 -27 c0 -44 -43
-125 -88 -165 -82 -74 202 -68 -3237 -68 -3439 0 -3155 -6 -3237 68 -47 43
-88 121 -88 171 l0 34 2117 -6 c1164 -4 2660 -7 3325 -7z m10865 -285 c50 -13
436 -15 3177 -15 2787 0 3126 2 3182 16 53 13 151 15 730 12 653 -4 671 -4
749 -26 243 -67 426 -234 453 -413 10 -72 54 232 -459 -3169 -11 -74 -27 -175
-35 -225 -7 -49 -27 -183 -44 -297 l-30 -206 -79 -80 c-133 -134 -160 -206
-221 -568 l-22 -131 -71 -6 c-127 -11 -218 -76 -249 -178 l-11 -38 -376 -3
c-303 -3 -386 -7 -428 -20 -29 -8 -53 -12 -53 -9 0 3 29 299 65 656 36 358 94
940 130 1295 36 355 67 665 69 690 3 25 26 250 51 500 25 250 47 473 50 495 2
22 16 154 30 294 21 207 24 264 15 307 -26 124 -142 229 -305 275 -43 12
-1488 14 -10125 14 l-10075 0 -83 -22 c-183 -49 -336 -161 -401 -294 -44 -91
-54 -154 -41 -269 13 -116 83 -808 110 -1090 11 -113 49 -493 85 -845 36 -352
83 -822 105 -1045 22 -223 43 -425 45 -450 6 -56 62 -605 115 -1140 22 -223
43 -425 46 -450 2 -25 22 -225 44 -445 72 -722 348 -3466 365 -3630 3 -27 12
-117 20 -200 21 -211 24 -239 35 -340 5 -49 10 -105 10 -122 l0 -33 -530 0
c-291 0 -530 2 -530 5 0 3 -14 96 -31 208 -17 111 -41 276 -55 367 -13 91 -31
208 -39 260 -8 52 -56 367 -106 700 -144 965 -188 1261 -219 1458 -11 73 -29
197 -41 275 -11 78 -29 198 -40 267 -11 69 -28 188 -40 265 -11 77 -40 271
-64 430 -37 245 -137 911 -191 1270 -33 221 -245 1629 -264 1755 -11 74 -25
164 -30 200 -5 36 -41 277 -80 535 -40 259 -78 513 -85 565 -8 52 -23 155 -34
227 -11 73 -28 181 -36 240 -9 60 -36 239 -60 398 -24 160 -53 353 -65 430
-11 77 -32 212 -45 300 -102 671 -106 702 -95 750 6 26 18 61 26 79 20 39 100
123 136 142 23 12 458 14 3062 14 2768 0 3039 1 3083 16 26 9 63 27 83 40 l35
24 4812 0 c4245 0 4819 -2 4870 -15z m-3937 -945 c0 -11 -29 -68 -64 -127
-348 -588 -688 -1298 -845 -1769 -87 -262 -151 -559 -151 -704 0 -48 -35 -79
-69 -61 -30 16 -33 39 -21 156 56 550 436 1472 994 2413 l67 112 44 0 c38 0
45 -3 45 -20z m6195 -12 c-68 -55 -224 -209 -289 -288 -90 -107 -185 -249
-249 -370 -30 -58 -326 -748 -657 -1535 -331 -786 -604 -1432 -606 -1434 -4
-5 -86 162 -199 404 -610 1312 -918 2322 -926 3040 -1 66 -1 141 0 168 l1 47
1483 0 1482 -1 -40 -31z m4087 4 c75 -30 152 -100 174 -157 20 -52 22 -14 -40
-630 -25 -247 -52 -520 -61 -605 -23 -233 -18 -218 -68 -224 -90 -11 -215 -16
-542 -21 -796 -13 -774 -12 -877 -34 -202 -44 -413 -138 -569 -256 -113 -85
-271 -251 -348 -365 -34 -51 -123 -215 -198 -364 -395 -789 -881 -1565 -1397
-2229 -313 -404 -547 -669 -926 -1048 -303 -303 -424 -415 -675 -623 -198
-164 -573 -446 -594 -446 -5 0 -56 27 -113 59 -56 32 -247 141 -423 241 -176
100 -324 185 -328 189 -4 4 54 154 129 332 75 178 155 367 176 419 83 199 123
293 385 915 272 644 1653 3920 1680 3985 126 302 371 617 634 818 l94 71 1915
-2 1915 -2 57 -23z m-18427 -562 c348 -235 660 -561 898 -937 85 -136 233
-434 286 -578 127 -342 200 -724 203 -1060 2 -160 -11 -205 -74 -261 -66 -58
-101 -65 -317 -62 l-194 3 -8 25 c-4 14 -46 165 -94 335 -286 1021 -574 1920
-803 2507 l-49 127 41 -26 c22 -14 73 -47 111 -73z m23671 -572 c-6 -194 -9
-321 -21 -813 -3 -121 -7 -287 -10 -370 -3 -82 -7 -262 -10 -400 -3 -137 -8
-311 -10 -385 -2 -74 -9 -335 -15 -580 -6 -245 -13 -500 -16 -568 l-6 -123
-116 3 -115 3 -14 41 c-30 92 -119 158 -222 168 -29 3 -56 7 -59 10 -2 3 10
90 28 193 49 284 34 405 -65 527 l-43 53 -6 109 c-3 60 -8 163 -11 229 -3 66
-7 167 -10 225 -2 58 -7 161 -10 230 -3 69 -8 161 -10 205 -2 44 -7 145 -10
225 -3 80 -10 233 -16 340 l-9 195 22 15 c141 94 423 338 618 534 74 75 136
136 138 136 3 0 1 -91 -2 -202z m-862 -713 c4 -88 8 -196 11 -240 2 -44 7
-143 10 -220 3 -77 8 -174 10 -215 2 -41 7 -138 10 -215 4 -77 10 -225 15
-330 6 -104 10 -199 10 -211 l0 -21 -67 23 c-38 13 -76 24 -85 24 -10 0 -21
14 -28 38 -19 59 -74 109 -134 122 -35 8 -246 10 -659 8 -601 -3 -607 -3 -607
17 0 11 7 88 14 170 8 83 22 233 31 335 9 102 18 194 20 205 4 17 28 28 137
59 390 112 829 311 1178 535 69 43 126 79 126 78 1 -1 5 -74 8 -162z m-4347
83 c-3 -29 -18 -179 -33 -333 -15 -154 -30 -283 -34 -288 -3 -4 -511 -6 -1129
-5 l-1123 3 75 100 c243 326 602 523 982 540 61 3 308 8 550 11 242 3 487 9
545 13 58 4 120 8 139 9 l34 2 -6 -52z m-6635 -533 l35 -90 -31 -3 c-79 -9
-170 48 -211 133 l-28 56 7 187 c3 103 9 211 12 241 l7 53 87 -243 c48 -134
103 -284 122 -334z m-22127 -82 c72 -63 188 -158 258 -211 l128 -97 -6 -140
c-3 -77 -8 -178 -10 -225 -3 -47 -7 -143 -10 -215 -3 -71 -7 -175 -10 -230 -5
-105 -11 -239 -20 -440 -12 -265 -15 -344 -20 -425 -3 -47 -7 -150 -10 -230
-3 -80 -8 -176 -10 -215 -3 -38 -7 -133 -10 -210 -3 -77 -7 -180 -10 -230 -2
-49 -7 -146 -10 -215 -3 -69 -8 -168 -10 -220 -3 -52 -9 -196 -15 -320 -5
-124 -12 -274 -15 -335 -5 -100 -27 -584 -40 -880 -10 -219 -16 -349 -20 -435
-3 -47 -7 -150 -10 -230 -3 -80 -7 -172 -10 -205 -2 -33 -7 -136 -10 -230 -3
-93 -8 -186 -10 -205 -2 -19 -7 -125 -11 -235 -3 -110 -9 -203 -13 -207 -8 -9
-300 -73 -305 -67 -2 2 -7 119 -10 259 -4 140 -11 426 -16 635 -5 209 -12 459
-15 555 -5 170 -9 345 -20 775 -3 116 -7 291 -10 390 -3 99 -7 279 -10 400 -3
121 -7 297 -10 390 -3 94 -7 265 -10 380 -3 116 -7 291 -10 390 -3 99 -7 270
-10 380 -3 110 -7 297 -10 415 -3 118 -7 287 -10 375 -3 88 -7 261 -10 385 -3
124 -7 302 -10 395 -3 94 -7 274 -10 400 -3 127 -8 294 -11 372 l-6 142 134
-136 c73 -74 192 -187 263 -250z m31544 -175 c-10 -106 -20 -227 -24 -268 -9
-108 -25 -254 -28 -257 -3 -2 -604 -5 -771 -3 l-28 0 7 283 c4 155 9 289 10
297 1 11 21 17 71 21 38 4 103 10 144 13 171 16 410 56 630 105 3 0 -2 -86
-11 -191z m-935 -110 c-3 -95 -7 -204 -9 -243 -2 -38 -4 -96 -4 -127 -1 -56
-2 -58 -39 -77 -43 -22 -106 -87 -117 -120 -4 -14 -15 -21 -33 -21 -15 0 -65
-13 -111 -29 l-83 -28 6 51 c4 28 18 123 31 211 14 88 36 237 50 330 14 94 28
182 31 198 l6 27 139 0 139 0 -6 -172z m-8037 -663 c44 -93 110 -231 146 -306
l65 -137 -42 -98 c-23 -55 -92 -216 -152 -358 -95 -228 -109 -256 -116 -230
-4 16 -21 178 -38 359 -18 182 -33 346 -36 365 -2 19 -11 109 -19 200 -9 91
-18 185 -20 210 -15 136 -55 561 -55 572 0 7 42 -81 94 -197 51 -115 129 -286
173 -380z m3399 -257 c-7 -340 -23 -963 -31 -1223 -2 -99 -7 -295 -10 -435 -3
-140 -7 -300 -10 -355 -2 -55 -7 -243 -11 -418 l-7 -317 -36 6 c-20 4 -37 7
-38 8 -1 1 -203 597 -203 601 0 1 27 23 60 49 45 35 60 54 60 72 0 14 -27 120
-59 237 -204 725 -301 1081 -301 1097 0 11 47 90 104 177 126 192 318 504 412
670 38 67 71 122 73 123 2 0 1 -132 -3 -292z m4440 215 c-2 -10 -8 -37 -11
-60 -4 -24 -12 -43 -18 -43 -7 0 -40 -13 -75 -30 -107 -50 -221 -174 -265
-287 -9 -23 -28 -111 -42 -195 -15 -84 -27 -154 -28 -155 -10 -9 -79 -8 -83 1
-7 18 54 363 72 416 55 154 207 301 363 351 74 24 94 24 87 2z m2714 -18 c140
-71 211 -220 189 -395 -12 -93 -58 -352 -64 -358 -7 -8 -76 -9 -80 -2 -2 4 7
74 21 156 28 164 27 220 -8 311 -24 66 -100 151 -163 182 l-47 24 6 45 c3 24
6 52 6 60 0 22 77 9 140 -23z m-30785 -109 c174 -29 192 -31 388 -47 l147 -13
1 -120 c0 -67 2 -132 3 -146 2 -14 7 -146 10 -295 4 -148 9 -299 11 -335 2
-36 6 -175 10 -310 3 -135 7 -283 10 -330 3 -47 7 -175 10 -285 3 -110 7 -256
10 -325 3 -69 7 -208 10 -310 3 -102 8 -243 10 -315 2 -71 7 -222 10 -335 3
-113 8 -248 10 -300 3 -52 7 -187 10 -300 3 -113 7 -266 10 -340 5 -128 8
-217 20 -620 3 -96 7 -229 10 -295 2 -66 7 -219 10 -340 3 -121 8 -256 10
-300 2 -44 7 -188 10 -320 3 -132 8 -276 10 -320 2 -44 7 -197 11 -341 l7
-261 -84 -7 c-46 -4 -109 -9 -139 -11 -30 -2 -87 -7 -127 -10 l-72 -6 -6 43
c-3 24 -23 241 -45 483 -22 242 -42 463 -45 490 -3 28 -10 104 -15 170 -6 66
-13 131 -15 145 -2 14 -6 61 -10 105 -9 116 -84 944 -90 985 -2 19 -6 64 -9
100 -10 116 -36 404 -41 460 -7 70 -13 141 -20 210 -12 136 -26 288 -30 320
-2 19 -7 69 -10 110 -3 41 -8 95 -10 120 -7 69 -14 139 -20 205 -3 33 -28 308
-55 610 -27 303 -52 570 -55 595 -6 59 -4 37 -90 984 -41 451 -75 830 -75 842
l0 22 83 -19 c45 -10 150 -29 232 -43z m8961 -98 c-3 -18 -13 -114 -21 -213
-9 -99 -19 -187 -22 -195 -4 -13 -122 395 -123 428 0 9 24 12 85 12 l86 0 -5
-32z m21694 3 c48 -32 95 -96 110 -150 15 -54 12 -102 -15 -261 -14 -80 -25
-147 -25 -150 0 -3 -29 -6 -65 -6 -118 -2 -218 -74 -246 -176 l-10 -38 -634 0
c-367 0 -635 4 -635 9 0 5 4 53 9 107 6 55 13 131 16 169 9 107 36 379 38 387
1 4 281 9 622 10 605 3 621 4 665 24 25 11 61 39 80 62 19 22 38 41 41 41 3 1
25 -12 49 -28z m-2575 -13 c28 -44 65 -69 114 -75 l42 -6 -6 -221 c-4 -122 -8
-239 -10 -261 -2 -22 -4 -77 -4 -122 l-1 -83 -99 0 -99 0 -6 34 c-8 44 -56
109 -104 141 -21 14 -65 30 -97 36 -33 7 -61 13 -63 14 -1 1 9 78 23 171 28
179 40 214 108 291 36 42 142 113 166 113 9 -1 25 -15 36 -32z m991 -410 c-15
-161 -29 -308 -32 -325 l-5 -33 -361 0 -360 0 7 291 c6 245 9 322 14 381 1 4
171 9 379 10 352 3 377 2 380 -14 2 -10 -8 -150 -22 -310z m-5932 -962 c92
-330 163 -602 159 -606 -4 -4 -237 -186 -518 -405 -280 -219 -543 -425 -584
-457 -41 -32 -78 -55 -82 -51 -9 9 -212 334 -313 500 l-69 112 49 54 c27 30
98 108 158 173 310 337 691 813 941 1176 44 64 83 113 86 109 4 -3 82 -276
173 -605z m-7619 372 l-7 -183 -74 -75 c-88 -91 -163 -182 -256 -312 l-69 -97
-77 33 c-42 18 -165 70 -272 115 l-196 82 -17 255 c-10 141 -17 257 -15 259 2
2 104 8 228 14 124 7 285 18 358 26 133 15 362 52 371 61 2 2 11 4 19 4 12 0
13 -27 7 -182z m16185 113 c-33 -47 -46 -87 -75 -226 -14 -71 -55 -269 -90
-440 -104 -508 -283 -1378 -320 -1555 -19 -91 -68 -331 -110 -535 -42 -203
-91 -444 -110 -535 -19 -91 -64 -307 -99 -480 -186 -908 -240 -1172 -276
-1343 -44 -206 -49 -296 -26 -408 29 -135 119 -283 221 -361 29 -23 53 -44 51
-45 -2 -2 -1269 -3 -2815 -3 -1915 0 -2827 4 -2859 11 -227 51 -404 260 -419
496 -3 47 -1 109 6 145 7 35 75 369 152 743 78 374 149 723 159 775 11 52 42
203 69 335 27 132 138 670 246 1195 289 1404 303 1474 330 1600 57 264 204
458 430 571 194 96 -88 87 2918 88 l2638 1 -21 -29z m613 18 c49 -13 106 -64
128 -114 9 -22 20 -78 23 -125 6 -70 25 -313 71 -880 3 -36 7 -87 10 -115 5
-56 5 -60 40 -490 14 -170 27 -337 30 -370 3 -33 12 -143 20 -245 8 -102 17
-212 20 -245 3 -33 12 -143 20 -245 9 -102 17 -210 20 -240 3 -30 9 -113 15
-185 6 -71 12 -155 15 -185 6 -66 27 -332 55 -675 11 -137 22 -277 25 -310 3
-33 12 -143 20 -245 8 -102 17 -210 20 -240 19 -205 45 -565 45 -618 0 -68
-28 -167 -62 -217 -65 -94 -164 -167 -265 -194 -28 -8 -255 -11 -730 -11 -758
0 -746 -1 -867 63 -86 44 -185 146 -228 232 -72 143 -77 244 -24 500 19 94 71
346 115 560 44 215 109 532 145 705 35 173 137 668 226 1100 88 432 172 837
185 900 14 63 99 477 190 920 90 443 170 821 176 840 18 57 65 104 126 126 47
16 379 19 436 3z m-20853 -341 l-1 -283 -19 37 c-27 51 -93 88 -156 88 -87 0
-368 -40 -404 -58 -40 -20 -79 -70 -135 -173 l-39 -74 -7 55 c-5 30 -19 165
-34 300 -14 135 -28 269 -31 298 l-6 52 78 1 c44 0 97 2 119 4 47 4 202 12
405 21 80 4 147 8 149 10 2 2 22 4 43 4 l38 0 0 -282z m4433 22 c90 -60 185
-143 432 -376 387 -365 536 -490 765 -641 668 -442 1089 -909 995 -1106 -19
-40 -91 -106 -175 -159 -320 -204 -783 -275 -1240 -190 -194 37 -539 109 -915
193 -531 118 -1174 266 -1217 281 -75 25 -154 106 -184 190 -15 43 -20 252
-10 404 3 32 7 109 11 169 14 249 83 850 104 907 5 14 24 9 144 -42 406 -172
526 -220 541 -214 9 3 46 49 82 101 163 233 354 444 456 502 80 46 119 43 211
-19z m-4550 -298 c11 -12 28 -67 46 -155 16 -76 34 -144 41 -152 15 -18 56
-20 67 -3 4 7 20 44 34 83 23 59 28 66 32 45 8 -35 41 -234 87 -525 21 -137
89 -560 150 -940 78 -481 110 -704 106 -737 -7 -61 -56 -157 -101 -196 -58
-51 -109 -72 -218 -87 -248 -36 -407 -44 -787 -40 -206 2 -391 6 -410 9 -19 3
-102 13 -185 22 -84 9 -173 25 -201 35 -70 27 -137 88 -171 157 -49 100 -43
155 64 577 180 708 321 1130 487 1465 63 125 168 304 185 315 5 3 21 -28 36
-67 48 -126 53 -136 74 -148 14 -7 27 -7 39 -1 9 5 55 77 101 160 95 170 83
161 236 181 50 6 117 15 150 20 74 10 115 5 138 -18z m11965 -1010 l100 -302
-19 -57 c-32 -90 -89 -395 -89 -476 0 -24 -4 -26 -62 -31 -35 -3 -135 -8 -223
-11 l-160 -6 -214 288 c-118 158 -214 293 -215 300 -1 15 766 616 775 606 3
-5 52 -144 107 -311z m-2374 -852 c4 -135 9 -288 11 -340 2 -52 7 -185 10
-295 3 -110 8 -252 10 -315 6 -135 13 -354 20 -605 3 -99 7 -232 10 -295 3
-63 8 -208 11 -322 l7 -208 -54 0 c-30 0 -123 -3 -206 -7 -140 -5 -153 -4
-153 11 0 18 -127 1325 -134 1386 -3 19 -7 62 -10 95 -3 33 -20 204 -37 380
-17 176 -32 344 -33 374 l-1 53 128 94 c71 52 190 143 265 203 l137 109 6 -37
c4 -20 10 -146 13 -281z m-1233 152 c134 -76 274 -156 312 -178 l67 -38 -391
-392 -391 -391 -66 -12 c-66 -12 -66 -12 -186 31 l-119 43 -59 80 c-32 44 -57
84 -56 90 2 8 640 904 644 905 0 0 110 -62 245 -138z m4507 -154 c7 -7 12 -22
12 -34 0 -12 -185 -332 -411 -711 -397 -664 -415 -691 -493 -768 -126 -125
-241 -178 -456 -210 -284 -43 -440 -66 -595 -90 -93 -14 -188 -28 -211 -31
-30 -5 -45 -2 -57 11 -24 23 -21 52 6 69 12 8 224 44 494 85 501 75 550 87
656 154 118 76 140 107 556 804 216 362 404 675 417 696 25 39 58 49 82 25z
m-16003 -726 c2 -2 207 53 346 94 13 4 14 -8 3 -113 -6 -65 -15 -154 -18 -198
-4 -44 -11 -119 -17 -167 l-9 -87 -71 -88 c-82 -102 -113 -159 -135 -246 -31
-117 -12 -209 94 -454 l30 -68 -69 -690 c-37 -379 -68 -697 -69 -707 0 -10 -7
-15 -17 -13 -22 5 -257 15 -337 15 l-58 0 6 153 c3 83 8 224 11 312 3 88 7
221 10 295 7 205 14 426 20 615 3 94 7 229 10 300 9 250 15 421 20 600 3 99 7
230 10 290 3 61 7 209 10 330 3 121 8 251 11 289 l6 70 106 -265 c58 -145 106
-265 107 -267z m1396 47 c38 -173 69 -317 69 -320 0 -3 -35 -11 -77 -17 -88
-14 -159 -44 -241 -102 -49 -34 -66 -40 -108 -40 -47 0 -56 4 -135 67 -98 77
-144 100 -222 109 -40 5 -58 12 -61 23 -10 36 -68 382 -65 385 9 6 755 214
763 212 5 -1 40 -144 77 -317z m-5131 217 c69 -3 217 -8 330 -12 113 -4 206
-7 207 -8 1 -1 -20 -96 -46 -211 -27 -116 -61 -266 -76 -335 -15 -69 -29 -126
-30 -128 -2 -2 -31 7 -66 18 -82 28 -165 32 -262 14 -73 -14 -80 -14 -122 5
-41 18 -48 27 -95 121 -55 110 -116 180 -175 202 -24 8 -34 17 -31 28 3 8 17
60 31 115 14 55 33 123 41 152 l14 52 78 -4 c42 -2 133 -7 202 -9z m4230 -343
c16 -95 30 -178 30 -186 0 -7 -25 -30 -56 -51 l-57 -38 6 44 c3 23 13 128 23
232 10 103 19 184 21 180 1 -5 16 -87 33 -181z m14200 102 c135 -37 251 -72
258 -77 15 -13 16 -50 0 -66 -19 -19 -47 -15 -260 43 -329 90 -307 82 -314
112 -6 20 -2 31 16 45 12 10 30 16 39 14 9 -3 126 -35 261 -71z m-4883 -265
c45 -107 82 -205 82 -216 1 -29 -22 -46 -55 -42 -25 3 -33 17 -111 208 -72
174 -83 208 -74 228 9 19 18 23 43 20 32 -3 34 -5 115 -198z m-13920 82 c53
-28 74 -54 126 -158 75 -150 142 -194 271 -178 39 4 107 8 151 9 71 0 88 -4
147 -33 78 -38 120 -82 162 -172 l31 -65 -2 -260 c-2 -234 -16 -551 -25 -560
-1 -2 -129 5 -282 15 -172 11 -288 15 -303 9 -29 -11 -33 -63 -4 -78 10 -6
101 -15 202 -21 101 -6 200 -12 219 -15 19 -2 64 -4 99 -5 l64 0 -6 -107 c-8
-131 -17 -204 -26 -198 -4 2 -128 11 -275 20 -291 17 -296 17 -296 -36 0 -47
-13 -44 375 -66 72 -4 145 -8 163 -8 17 0 32 -5 32 -11 0 -5 -9 -84 -20 -175
-55 -447 -162 -953 -232 -1097 -63 -128 -182 -198 -298 -174 -112 24 -197 106
-338 327 -346 546 -572 1243 -632 1955 -11 133 -14 598 -4 671 20 146 94 232
274 321 232 115 336 136 427 90z m13367 -18 c9 -4 39 -78 78 -195 49 -149 60
-193 52 -207 -14 -22 -57 -27 -73 -9 -6 8 -39 95 -71 193 -56 166 -59 179 -45
201 16 23 31 28 59 17z m5239 -74 c205 -51 207 -52 207 -89 0 -54 -21 -56
-207 -11 -92 22 -178 45 -190 50 -38 16 -26 90 14 90 8 0 87 -18 176 -40z
m-13758 -119 c22 -10 68 -41 103 -70 77 -64 133 -90 193 -91 62 0 103 15 174
66 89 63 136 79 230 79 68 0 89 -5 140 -30 82 -39 145 -106 188 -196 73 -154
282 -658 275 -664 -2 -2 -104 -42 -228 -90 -300 -116 -318 -124 -325 -146 -9
-28 12 -59 40 -59 13 0 139 45 280 100 142 55 261 100 265 100 4 0 13 -12 18
-27 6 -16 28 -78 50 -139 l40 -110 -251 -99 c-139 -54 -258 -102 -264 -108
-20 -15 -15 -54 8 -71 18 -12 27 -12 58 -1 70 25 426 167 453 180 l28 13 54
-171 c154 -485 265 -977 253 -1122 -9 -114 -72 -213 -162 -251 -57 -24 -155
-21 -230 7 -149 56 -436 250 -680 462 -511 441 -939 1037 -1205 1677 -89 213
-82 319 32 472 88 119 254 284 298 296 55 16 121 13 165 -7z m10413 -563 c19
-19 15 -66 -7 -78 -13 -7 -487 -10 -1463 -10 -1290 0 -1446 2 -1466 16 -26 18
-29 59 -4 73 27 16 2924 15 2940 -1z"/>
<path d="M33333 44701 c-73 -34 -114 -124 -92 -205 29 -103 151 -156 249 -106
123 63 123 245 0 308 -54 27 -101 28 -157 3z"/>
<path d="M34035 44706 c-115 -51 -140 -202 -49 -288 89 -83 232 -53 280 59 61
142 -90 292 -231 229z"/>
<path d="M34724 44701 c-99 -45 -128 -171 -61 -265 11 -15 38 -37 61 -47 165
-75 320 103 220 254 -46 70 -139 95 -220 58z"/>
<path d="M35676 44568 c-13 -19 -14 -25 -2 -43 13 -20 23 -20 457 -23 244 -1
454 0 465 3 28 6 36 38 17 64 -14 21 -21 21 -468 21 l-454 0 -15 -22z"/>
<path d="M37990 43163 c-1116 -40 -2194 -438 -3051 -1125 -527 -421 -969 -959
-1260 -1531 -79 -156 -80 -164 -2 -192 229 -79 2835 -965 2841 -965 14 0 47
41 88 110 85 143 291 369 439 481 296 225 625 364 975 414 75 10 108 19 117
32 9 11 13 53 13 122 0 58 4 322 10 586 5 264 12 653 15 865 3 212 8 457 10
545 9 335 8 636 -2 646 -13 13 -77 17 -193 12z m106 -250 c-3 -87 -8 -333 -11
-548 -3 -214 -7 -471 -10 -570 -2 -99 -7 -353 -10 -565 -8 -577 -15 -764 -27
-771 -6 -4 -36 -10 -67 -14 -87 -11 -305 -68 -416 -110 -418 -157 -773 -436
-1015 -798 -28 -43 -57 -77 -63 -74 -7 2 -617 210 -1357 462 -740 252 -1355
461 -1368 466 -23 9 -23 9 34 116 815 1526 2460 2516 4257 2562 l58 1 -5 -157z"/>
<path d="M37560 42740 c-275 -37 -507 -86 -765 -161 -146 -43 -431 -145 -452
-162 -20 -15 -15 -54 8 -71 20 -13 29 -12 103 16 379 143 782 243 1158 286 88
10 164 24 172 31 20 17 20 45 0 65 -19 20 -51 19 -224 -4z"/>
<path d="M35787 42150 c-340 -197 -609 -397 -889 -661 -107 -100 -128 -125
-128 -149 0 -28 22 -50 50 -50 6 0 70 56 142 125 283 271 562 473 973 707 55
32 60 37 60 69 0 32 -2 34 -35 36 -28 2 -63 -13 -173 -77z"/>
<path d="M40272 38242 c-7 -4 -28 -69 -47 -143 -38 -152 -76 -253 -142 -384
-250 -495 -725 -870 -1287 -1015 -385 -100 -837 -84 -1192 41 -115 40 -126 39
-162 -18 -16 -27 -103 -163 -194 -303 -91 -140 -429 -664 -751 -1163 -368
-568 -587 -917 -587 -932 0 -29 18 -39 203 -114 302 -122 722 -242 1037 -295
1054 -178 2103 -41 3070 404 733 337 1412 883 1895 1525 488 649 787 1384 889
2184 16 123 12 147 -27 155 -12 3 -168 8 -347 11 -179 3 -390 8 -470 10 -80 3
-257 7 -395 10 -137 3 -320 7 -405 10 -85 3 -265 7 -400 10 -135 3 -342 8
-460 11 -118 3 -221 1 -228 -4z m793 -107 c72 -3 252 -7 400 -10 149 -3 356
-8 460 -10 333 -9 939 -25 964 -25 23 0 23 -1 16 -72 -11 -113 -51 -327 -96
-508 -272 -1101 -999 -2102 -1999 -2752 -721 -470 -1523 -740 -2395 -808 -175
-14 -575 -14 -754 1 -424 33 -847 117 -1226 244 -130 44 -387 143 -398 154 -4
4 158 264 361 577 202 313 538 833 746 1155 l379 587 71 -24 c392 -134 864
-143 1279 -24 702 202 1257 746 1432 1405 15 55 29 106 31 114 4 11 55 12 302
7 163 -3 356 -8 427 -11z"/>
<path d="M42488 37793 c-8 -10 -30 -81 -48 -158 -226 -964 -859 -1870 -1728
-2475 -405 -282 -927 -532 -1357 -650 -85 -23 -117 -47 -108 -80 13 -47 55
-42 303 40 669 222 1288 597 1787 1084 264 257 424 450 617 741 167 252 271
444 377 696 69 166 169 472 210 642 31 133 32 138 14 157 -22 25 -47 26 -67 3z"/>
<path d="M36509 34551 c-20 -16 -22 -23 -14 -47 9 -24 22 -31 115 -61 266 -83
613 -156 905 -189 148 -17 737 -31 800 -20 27 5 36 13 41 33 15 58 14 58 -307
59 -327 1 -448 10 -749 56 -217 32 -529 106 -704 167 -71 25 -59 25 -87 2z"/>
<path d="M42099 44569 c-8 -16 -8 -28 0 -45 l11 -24 519 0 520 0 12 21 c8 16
8 28 0 45 l-11 24 -519 0 -520 0 -12 -21z"/>
<path d="M22255 42894 c-420 -42 -783 -254 -1005 -586 -101 -150 -159 -285
-202 -468 -29 -125 -33 -361 -8 -500 49 -275 165 -503 358 -702 111 -115 231
-202 367 -269 204 -99 357 -134 590 -134 238 1 397 40 615 151 131 67 220 133
332 246 141 143 244 311 311 508 49 142 68 259 68 415 1 230 -40 402 -143 609
-64 130 -121 209 -235 327 -243 250 -548 386 -903 402 -58 3 -123 3 -145 1z
m340 -119 c437 -95 778 -393 922 -805 92 -263 91 -576 -3 -825 -135 -361 -412
-632 -764 -749 -58 -19 -141 -41 -185 -50 -104 -19 -326 -19 -429 0 -250 48
-482 169 -656 344 -382 384 -472 969 -221 1447 128 242 353 453 598 559 91 39
238 79 338 93 93 13 313 5 400 -14z"/>
<path d="M27210 29289 c-238 -472 -679 -979 -1185 -1359 -619 -465 -1357 -786
-2199 -955 -93 -19 -176 -41 -184 -49 -21 -21 -8 -64 22 -72 29 -7 229 32 466
91 1001 249 1846 718 2490 1381 245 252 440 506 604 786 92 158 121 225 107
254 -8 18 -19 24 -41 24 -28 0 -33 -7 -80 -101z"/>
<path d="M14593 24829 c-37 -14 -28 -51 38 -151 339 -516 487 -1247 403 -1992
-18 -162 -15 -176 37 -176 40 0 44 15 64 211 19 182 24 460 12 644 -33 509
-221 1084 -458 1402 -46 61 -65 74 -96 62z"/>
<path d="M11490 24335 c-17 -21 -8 -83 41 -275 170 -668 485 -1256 889 -1659
390 -390 863 -624 1405 -696 226 -30 672 -26 711 6 20 17 17 56 -5 71 -15 11
-41 12 -123 5 -142 -12 -480 -2 -617 18 -412 60 -791 225 -1116 488 -192 155
-432 434 -584 679 -219 351 -410 825 -491 1218 -12 58 -27 116 -34 130 -14 30
-57 38 -76 15z"/>
<path d="M11320 20642 c-38 -31 -21 -60 72 -128 356 -260 851 -459 1352 -545
404 -69 879 -68 1304 1 361 59 922 219 956 272 14 22 -8 68 -32 68 -11 0 -100
-27 -198 -60 -303 -101 -582 -166 -879 -204 -190 -25 -294 -31 -540 -30 -400
1 -725 52 -1090 171 -311 101 -626 260 -844 424 -35 27 -67 49 -71 49 -4 0
-18 -8 -30 -18z"/>
<path d="M33044 21835 c-64 -19 -110 -60 -144 -128 -95 -190 45 -447 245 -447
70 0 146 37 184 90 90 124 78 288 -29 404 -71 77 -168 108 -256 81z"/>
<path d="M21330 21731 c-76 -23 -147 -89 -182 -169 -62 -140 -10 -310 113
-373 56 -28 142 -26 207 7 97 48 152 138 160 262 6 87 -13 146 -67 205 -60 66
-149 93 -231 68z"/>
<path d="M43632 13548 c-9 -12 -161 -641 -398 -1653 -58 -245 -70 -281 -115
-330 -22 -23 -62 -52 -89 -64 l-49 -21 -2511 0 c-2490 0 -2510 0 -2530 -20
-24 -24 -25 -43 -4 -64 14 -14 104 -16 846 -16 786 0 830 -1 825 -17 -121
-434 -129 -469 -125 -520 6 -68 46 -127 107 -160 l44 -23 546 0 546 0 50 24
c50 23 107 78 127 122 6 13 41 147 78 297 l66 272 985 5 984 5 55 26 c124 59
182 144 224 324 14 61 46 196 71 300 25 105 86 361 135 570 50 209 117 494
150 632 63 267 67 292 48 311 -16 16 -53 15 -66 0z m-2686 -2185 c-3 -10 -33
-130 -67 -268 -60 -238 -64 -252 -100 -290 l-38 -40 -549 -3 c-539 -2 -549 -2
-575 18 -55 44 -54 64 18 326 36 132 68 247 71 257 5 16 44 17 625 17 586 0
620 -1 615 -17z"/>
<path d="M37200 8333 c-19 -7 -40 -33 -40 -49 0 -7 7 -20 16 -28 14 -14 270
-16 2664 -16 2394 0 2650 2 2664 16 20 19 20 35 2 60 -14 19 -54 19 -2653 21
-1451 1 -2645 -1 -2653 -4z"/>
<path d="M44167 13542 c-16 -17 -17 -197 -17 -2383 l0 -2364 -420 -239 c-390
-221 -420 -240 -420 -265 0 -31 16 -51 42 -51 20 0 879 486 890 504 12 18 10
4774 -2 4797 -13 24 -52 25 -73 1z"/>
<path d="M28286 12610 c-270 -244 -287 -265 -254 -298 29 -29 58 -9 321 229
270 243 288 264 255 297 -30 30 -58 11 -322 -228z"/>
<path d="M26661 11894 c-12 -9 -21 -26 -21 -40 0 -31 32 -46 295 -142 662
-242 1262 -395 1825 -467 549 -71 1014 4 1258 202 49 40 58 84 21 104 -19 9
-31 4 -93 -39 -203 -141 -411 -193 -778 -192 -413 0 -902 85 -1518 262 -287
82 -519 160 -886 296 -74 28 -83 29 -103 16z"/>
<path d="M23149 11806 c-2 -2 -123 -7 -269 -11 -219 -6 -268 -9 -282 -22 -23
-20 -23 -47 -1 -69 15 -14 33 -16 157 -10 78 3 227 8 331 11 349 11 365 13
365 59 0 41 -17 46 -160 46 -75 0 -139 -2 -141 -4z"/>
<path d="M23809 11005 c-9 -9 -242 -56 -373 -75 -244 -36 -360 -44 -621 -44
-262 0 -413 13 -585 49 -95 20 -117 19 -130 -5 -15 -28 -3 -59 27 -71 13 -5
75 -18 136 -29 444 -78 978 -56 1488 60 88 20 129 43 129 71 0 25 -56 59 -71
44z"/>
<path d="M15749 10024 c-15 -18 -16 -37 -5 -244 52 -1070 311 -1938 694 -2329
130 -132 225 -181 252 -131 17 32 3 58 -43 81 -63 33 -205 182 -279 294 -310
468 -475 1146 -534 2195 -3 63 -10 123 -15 133 -12 21 -52 22 -70 1z"/>
<path d="M20756 9684 c-9 -8 -16 -22 -16 -31 0 -29 232 -453 367 -671 461
-747 953 -1231 1403 -1382 36 -12 97 -24 137 -27 70 -6 73 -5 84 19 19 43 -1
64 -68 73 -164 20 -390 135 -598 305 -378 309 -775 839 -1130 1510 -54 102
-105 193 -113 203 -19 21 -46 22 -66 1z"/>
<path d="M27941 44385 c-66 -68 -121 -132 -121 -140 0 -30 20 -55 45 -55 17 0
55 34 144 127 119 125 136 154 109 181 -29 29 -56 12 -177 -113z"/>
<path d="M27066 44474 c-9 -8 -16 -23 -16 -32 0 -10 55 -72 123 -140 96 -96
128 -122 149 -122 31 0 53 30 43 59 -9 30 -241 251 -263 251 -12 0 -28 -7 -36
-16z"/>
<path d="M27837 43712 c-10 -10 -17 -25 -17 -32 0 -7 55 -69 122 -137 124
-125 154 -143 186 -111 28 28 11 55 -111 176 -127 125 -149 138 -180 104z"/>
<path d="M27183 43593 c-120 -126 -138 -154 -111 -181 31 -31 59 -13 178 111
76 78 119 130 120 144 0 26 -25 53 -48 53 -9 0 -72 -57 -139 -127z"/>
<path d="M16885 41269 c-14 -5 -87 -140 -225 -412 l-205 -405 -200 0 c-110 0
-231 -2 -270 -6 l-70 -7 -215 397 c-118 218 -224 403 -235 410 -17 11 -34 9
-120 -16 -55 -15 -246 -70 -425 -120 -205 -58 -330 -98 -338 -108 -8 -11 -11
-34 -8 -67 3 -27 8 -97 11 -155 3 -58 12 -239 21 -403 8 -165 14 -300 12 -301
-2 -1 -65 -37 -140 -79 -75 -42 -178 -103 -229 -136 l-91 -61 -382 234 c-209
128 -389 236 -399 239 -23 9 -52 -18 -389 -365 -223 -230 -268 -281 -263 -298
4 -12 117 -190 251 -395 134 -206 244 -377 244 -379 0 -2 -27 -47 -60 -99 -32
-52 -91 -156 -131 -232 l-72 -138 -291 7 c-160 3 -360 9 -443 12 -84 4 -164 3
-177 0 -30 -7 -22 16 -151 -493 -71 -283 -94 -387 -86 -400 5 -10 191 -110
413 -223 l404 -205 0 -180 c-1 -99 1 -220 4 -270 l4 -89 -119 -66 c-66 -37
-247 -135 -402 -219 -170 -92 -284 -160 -288 -170 -8 -28 231 -863 252 -879 9
-6 31 -10 48 -7 16 2 86 7 155 10 69 3 159 8 200 10 110 7 237 14 390 21 l135
6 49 -97 c28 -53 87 -155 133 -227 46 -72 83 -135 83 -140 0 -10 -50 -94 -185
-313 -181 -292 -285 -468 -285 -480 0 -19 638 -645 658 -645 5 0 140 85 298
188 159 103 333 216 387 251 l97 63 108 -65 c59 -36 165 -96 236 -133 l129
-67 -6 -181 c-4 -100 -10 -308 -13 -462 -7 -270 -6 -282 12 -292 35 -18 862
-222 877 -216 8 3 94 161 191 352 96 191 190 375 208 409 l33 62 165 -2 c91
-1 212 0 269 3 l104 5 216 -398 c120 -220 225 -403 234 -408 11 -7 83 9 244
55 125 35 311 88 413 116 102 29 196 59 209 67 24 15 24 15 17 157 -8 177 -24
477 -31 576 -7 104 -9 200 -4 204 2 1 60 33 128 71 68 37 170 99 227 136 l103
68 183 -113 c519 -320 600 -367 618 -361 32 10 630 631 630 655 0 12 -108 187
-240 389 -131 202 -242 375 -246 384 -4 11 8 40 34 80 66 104 107 177 162 287
29 58 54 107 55 108 2 2 209 -2 460 -8 406 -11 458 -11 472 3 22 21 233 860
222 880 -12 20 -99 67 -496 267 l-323 162 0 212 c0 117 -3 240 -6 272 l-5 59
123 66 c436 233 687 374 691 388 2 9 -20 102 -50 206 -30 105 -83 293 -119
420 -35 126 -71 236 -79 244 -13 14 -69 12 -472 -8 -391 -21 -458 -22 -465
-10 -5 8 -38 68 -75 134 -36 66 -95 164 -130 218 l-63 99 71 116 c40 64 115
187 167 272 52 85 123 200 157 255 81 131 86 141 79 158 -3 8 -147 153 -321
322 -276 269 -318 306 -342 303 -14 -2 -190 -111 -391 -242 -201 -131 -370
-240 -376 -243 -7 -2 -68 29 -136 70 -68 42 -173 99 -232 129 l-109 53 7 310
c3 171 9 378 12 460 6 134 5 152 -10 164 -26 22 -858 230 -881 220z m425 -193
l365 -93 -5 -299 c-2 -164 -4 -373 -5 -464 l0 -165 50 -24 c95 -45 310 -164
402 -222 51 -33 99 -59 108 -59 9 0 182 108 384 240 203 132 375 242 382 245
9 3 125 -104 289 -264 268 -262 275 -270 261 -292 -8 -13 -111 -181 -229 -373
-118 -193 -219 -360 -224 -372 -9 -18 2 -40 75 -150 46 -71 120 -194 163 -274
l79 -145 95 0 c92 1 400 14 450 20 14 2 105 6 202 10 l177 8 17 -59 c9 -33 57
-198 105 -369 79 -277 86 -311 72 -322 -8 -7 -188 -106 -400 -220 -277 -150
-385 -214 -388 -228 -3 -11 -1 -74 4 -140 5 -66 7 -204 5 -306 -3 -141 -1
-189 9 -197 6 -5 188 -98 402 -207 215 -109 393 -201 397 -204 4 -3 -35 -173
-86 -376 l-93 -370 -199 0 c-109 0 -309 4 -443 8 -134 5 -254 6 -267 3 -16 -4
-38 -39 -87 -138 -36 -73 -104 -195 -151 -272 -47 -76 -86 -146 -86 -155 0 -9
35 -70 78 -136 43 -66 109 -167 147 -225 37 -58 113 -174 168 -258 l100 -153
-84 -87 c-46 -48 -169 -173 -272 -278 l-188 -191 -52 32 c-328 203 -706 432
-719 438 -12 4 -51 -17 -122 -63 -99 -66 -265 -163 -386 -226 l-55 -29 1 -120
c0 -66 9 -272 19 -458 10 -198 14 -342 9 -347 -11 -9 -733 -214 -738 -209 -2
2 -99 181 -216 397 -117 216 -220 397 -229 401 -9 5 -73 5 -146 -1 -72 -5
-210 -8 -307 -5 -125 4 -181 2 -191 -6 -8 -7 -104 -187 -212 -402 -109 -214
-201 -394 -205 -398 -4 -5 -175 33 -380 85 l-373 93 7 320 c3 176 9 381 12
455 3 74 2 140 -3 146 -4 6 -75 45 -158 87 -82 42 -205 110 -272 151 -67 42
-127 76 -134 76 -6 0 -178 -108 -381 -241 -203 -132 -376 -243 -383 -245 -12
-5 -91 69 -513 480 l-52 51 34 55 c275 445 436 715 436 731 0 11 -26 59 -58
107 -83 124 -129 201 -197 332 l-60 115 -70 1 c-38 0 -245 -9 -460 -21 -214
-12 -393 -19 -396 -16 -11 11 -210 731 -205 740 3 5 179 102 392 217 212 115
392 218 399 229 10 16 11 42 4 120 -5 55 -8 195 -7 312 2 116 1 213 -2 216 -9
8 -189 101 -485 250 -159 80 -299 152 -309 160 -18 13 -16 26 75 387 l94 372
240 -6 c132 -3 337 -9 455 -12 118 -3 220 -2 226 3 6 4 39 63 73 131 56 112
128 238 211 370 27 43 31 56 23 75 -6 12 -117 186 -247 385 -130 200 -236 367
-236 371 0 11 520 545 534 549 6 1 154 -85 329 -193 175 -107 350 -214 388
-236 l69 -42 45 29 c184 119 286 181 388 234 65 35 121 68 124 76 2 7 -2 143
-11 301 -9 158 -19 335 -21 393 -3 58 -8 131 -11 162 l-5 57 53 15 c492 141
693 195 699 189 6 -7 191 -346 369 -675 34 -64 69 -119 77 -122 8 -3 83 -1
166 5 85 6 221 8 309 5 133 -6 158 -4 172 9 8 8 81 147 162 308 126 251 235
463 251 490 6 10 -21 16 383 -87z"/>
<path d="M16001 39078 c-210 -21 -486 -96 -691 -188 -615 -277 -1080 -829
-1248 -1485 -56 -218 -67 -307 -67 -565 0 -264 17 -391 80 -610 222 -771 831
-1362 1608 -1561 619 -158 1288 -39 1818 322 510 349 859 905 954 1524 78 509
-39 1071 -316 1517 -119 192 -323 423 -494 558 -342 270 -767 447 -1180 488
-111 12 -352 12 -464 0z m574 -113 c601 -95 1159 -465 1477 -978 165 -264 273
-572 313 -887 21 -161 16 -448 -10 -600 -115 -686 -552 -1276 -1170 -1580
-232 -115 -450 -178 -740 -215 -76 -10 -356 -7 -454 5 -241 29 -484 100 -695
204 -624 306 -1047 863 -1177 1551 -27 138 -37 475 -20 621 77 655 450 1242
1008 1587 182 112 382 197 593 251 288 74 584 88 875 41z"/>
<path d="M11068 32761 c-122 -39 -215 -121 -271 -239 -30 -63 -32 -73 -32
-182 0 -108 2 -119 32 -182 122 -258 443 -339 667 -168 113 86 170 200 170
345 1 108 -18 175 -73 255 -106 155 -315 228 -493 171z m293 -118 c151 -82
219 -266 157 -430 -29 -80 -112 -162 -193 -192 -83 -32 -207 -27 -280 11 -70
36 -123 92 -158 167 -26 55 -31 77 -31 141 0 64 5 86 31 141 49 104 144 180
247 198 68 11 170 -5 227 -36z"/>
<path d="M43703 31124 c-67 -70 -124 -136 -126 -146 -6 -21 24 -58 46 -58 19
0 267 255 267 274 0 19 -35 56 -52 56 -7 0 -68 -57 -135 -126z"/>
<path d="M42823 31208 c-6 -7 -13 -19 -17 -26 -11 -18 240 -272 269 -272 28 0
45 18 45 48 0 18 -32 56 -122 143 -121 116 -153 136 -175 107z"/>
<path d="M43592 30448 c-28 -28 -10 -55 111 -176 81 -81 130 -122 144 -122 27
0 53 34 46 61 -8 29 -244 249 -268 249 -12 0 -26 -5 -33 -12z"/>
<path d="M42942 30329 c-64 -67 -121 -128 -126 -136 -15 -26 10 -63 43 -63 24
0 48 21 150 130 66 71 121 133 121 138 0 19 -33 52 -51 52 -13 0 -64 -45 -137
-121z"/>
</g>
</svg>
