<?xml version="1.0" standalone="no"?>
<!DOCTYPE svg PUBLIC "-//W3C//DTD SVG 20010904//EN"
 "http://www.w3.org/TR/2001/REC-SVG-20010904/DTD/svg10.dtd">
<svg version="1.0" xmlns="http://www.w3.org/2000/svg"
 width="5209.000000pt" height="5210.000000pt" viewBox="0 0 5209.000000 5210.000000"
 preserveAspectRatio="xMidYMid meet">

<g transform="translate(0.000000,5210.000000) scale(0.100000,-0.100000)"
fill="#000000" stroke="none">
<path d="M25229 45087 c-24 -13 -56 -41 -71 -63 -32 -45 -1669 -4411 -1670
-4452 0 -15 10 -102 22 -193 l22 -166 -87 -232 c-48 -128 -85 -234 -83 -235 1
-2 692 -278 1533 -615 l1530 -612 32 -43 c87 -119 283 -182 440 -141 66 17 71
17 203 -4 74 -12 261 -42 415 -67 154 -24 361 -58 460 -74 472 -77 2743 -440
2768 -442 l29 -3 153 405 c84 223 271 718 415 1100 144 382 349 925 455 1205
669 1772 914 2422 917 2434 2 12 -44 22 -223 51 -124 20 -232 39 -241 42 -8 3
-43 56 -79 118 -102 179 -89 170 -334 239 -541 154 -1087 293 -1317 335 -400
74 -808 82 -1203 25 -77 -11 -300 -54 -495 -95 -195 -40 -362 -74 -371 -74 -8
0 -96 68 -195 152 -98 83 -214 177 -256 209 -396 295 -1335 739 -2444 1155
-197 74 -250 80 -325 41z m300 -133 c994 -374 1854 -772 2291 -1059 135 -89
167 -114 397 -308 147 -124 152 -129 142 -155 -6 -15 -380 -1012 -831 -2217
-451 -1204 -823 -2195 -827 -2201 -3 -7 -94 60 -226 168 -331 270 -502 379
-915 587 -455 228 -1142 519 -1755 742 -110 40 -203 76 -208 79 -6 5 1588
4280 1626 4360 15 31 73 70 105 70 13 0 104 -30 201 -66z m4611 -1325 c327
-30 661 -103 1410 -310 416 -114 445 -123 442 -140 -2 -8 -377 -1012 -834
-2232 -688 -1837 -833 -2217 -847 -2213 -457 142 -969 250 -1416 301 -340 38
-525 47 -998 49 -414 1 -429 0 -443 -18 -18 -25 -18 -41 0 -59 12 -12 99 -15
503 -20 603 -8 890 -30 1338 -107 285 -49 463 -90 812 -187 l202 -56 97 -259
c53 -142 94 -261 90 -265 -3 -4 -133 15 -289 40 -155 26 -559 92 -897 148
-338 55 -914 150 -1280 210 -366 60 -726 119 -800 131 l-135 21 -158 136
c-107 91 -157 140 -154 150 10 34 1676 4473 1681 4478 6 6 555 124 718 154
276 51 695 72 958 48z m2024 -711 c53 -91 96 -170 96 -175 0 -22 -1675 -4552
-1681 -4545 -4 4 -45 109 -91 234 l-85 226 830 2216 c457 1219 831 2215 832
2213 1 -1 46 -77 99 -169z m-8192 -2571 c984 -372 1802 -758 2172 -1026 119
-87 491 -391 491 -403 0 -19 -119 -109 -140 -105 -11 2 -432 170 -935 372
-503 203 -1135 457 -1405 565 l-490 196 -32 240 c-17 131 -34 253 -36 271 l-5
31 78 -29 c43 -15 179 -66 302 -112z"/>
<path d="M25498 44319 c-18 -10 -24 -45 -10 -66 4 -6 63 -34 132 -61 262 -105
774 -352 1005 -486 84 -48 115 -55 135 -32 29 36 9 59 -115 130 -250 143 -713
366 -999 481 -123 49 -123 49 -148 34z"/>
<path d="M25956 43247 c-12 -9 -17 -23 -14 -42 3 -27 14 -35 98 -78 680 -344
969 -545 1273 -885 49 -55 80 -55 100 0 8 23 -49 95 -174 218 -167 165 -428
355 -714 520 -122 70 -498 265 -531 274 -11 3 -28 0 -38 -7z"/>
<path d="M24920 42746 c-18 -22 -8 -59 20 -73 14 -8 120 -54 235 -104 433
-188 946 -444 1194 -596 228 -140 397 -268 659 -497 52 -46 66 -54 85 -47 15
6 23 18 25 38 3 27 -7 40 -90 116 -210 194 -476 387 -747 542 -143 81 -609
318 -801 405 -245 112 -525 230 -546 230 -12 0 -27 -7 -34 -14z"/>
<path d="M25030 42036 c-6 -8 -10 -25 -8 -38 4 -27 -5 -23 638 -334 245 -118
495 -242 555 -276 222 -123 433 -275 640 -462 53 -48 69 -57 90 -52 15 4 27
16 31 32 8 30 -20 62 -161 183 -156 135 -316 248 -502 354 -210 120 -1215 607
-1253 607 -10 0 -23 -7 -30 -14z"/>
<path d="M25385 41236 c-13 -19 -14 -29 -5 -46 7 -13 106 -68 263 -146 520
-260 727 -392 989 -626 48 -43 92 -78 98 -78 14 0 50 38 50 53 0 36 -297 286
-475 399 -181 115 -852 468 -889 468 -8 0 -23 -11 -31 -24z"/>
<path d="M24403 40979 c-31 -11 -40 -47 -17 -69 11 -10 57 -30 104 -45 351
-115 917 -359 1262 -545 331 -179 538 -319 686 -466 51 -51 99 -95 106 -97 22
-9 56 22 56 49 0 17 -24 48 -84 108 -182 180 -476 371 -896 581 -432 216
-1159 506 -1217 484z"/>
<path d="M29529 43086 c-2 -2 -80 -6 -174 -10 -246 -9 -569 -54 -608 -86 -24
-20 -18 -65 11 -74 10 -4 83 5 162 18 243 41 362 50 630 50 285 -1 449 -16
695 -65 183 -36 560 -131 790 -197 144 -42 173 -48 190 -37 24 15 31 57 13 72
-31 25 -758 216 -1000 262 -166 32 -330 51 -483 57 -77 2 -159 7 -181 9 -23 2
-43 3 -45 1z"/>
<path d="M29080 42513 c-163 -12 -470 -58 -523 -78 -40 -16 -26 -85 17 -85 13
0 45 4 72 9 417 79 930 83 1333 10 166 -30 666 -151 986 -239 106 -30 107 -30
128 -12 22 20 22 59 -1 71 -66 35 -918 246 -1157 286 -223 37 -628 55 -855 38z"/>
<path d="M29088 41953 c-23 -25 -23 -38 2 -63 18 -18 33 -20 135 -20 131 0
352 -21 518 -50 120 -20 665 -147 886 -205 149 -40 180 -41 192 -8 20 56 -16
69 -606 207 -501 117 -646 141 -950 152 -151 6 -161 6 -177 -13z"/>
<path d="M28720 41413 c-247 -14 -583 -64 -612 -90 -23 -21 -23 -46 0 -67 18
-15 26 -15 123 3 220 42 374 55 649 56 275 0 362 -5 540 -31 228 -33 535 -106
962 -230 141 -40 264 -71 273 -68 8 4 20 15 26 25 17 33 -6 57 -76 78 -278 86
-787 219 -994 260 -272 55 -621 79 -891 64z"/>
<path d="M28301 40915 c-164 -19 -357 -52 -390 -68 -30 -14 -38 -44 -18 -71
14 -19 17 -19 173 7 249 42 361 51 629 51 395 0 588 -29 1155 -172 205 -52
315 -75 329 -70 24 9 29 59 8 76 -16 14 -654 174 -802 201 -243 46 -332 53
-650 56 -214 2 -348 -1 -434 -10z"/>
<path d="M28110 40390 c-162 -19 -331 -47 -366 -61 -29 -11 -36 -44 -14 -71
l18 -22 88 16 c261 49 468 67 739 63 234 -4 335 -13 572 -52 175 -28 193 -26
193 22 0 44 -25 51 -295 92 -233 35 -696 41 -935 13z"/>
<path d="M28015 39849 c-122 -8 -331 -35 -473 -60 -78 -14 -108 -36 -99 -71 4
-14 14 -29 23 -32 8 -3 66 3 127 14 224 39 361 52 607 55 406 6 604 -21 1175
-159 127 -31 298 -75 382 -97 84 -23 159 -39 167 -36 21 8 31 54 16 72 -18 22
-150 59 -575 161 -396 95 -539 122 -730 139 -38 4 -80 8 -92 10 -62 10 -414
12 -528 4z"/>
<path d="M17149 45016 c-3 -3 -102 -10 -220 -16 -320 -14 -527 -50 -800 -140
-583 -191 -1094 -582 -1436 -1098 -392 -592 -546 -1343 -418 -2037 109 -587
386 -1103 812 -1516 424 -409 951 -665 1557 -755 124 -18 487 -26 616 -13 246
24 419 66 820 198 347 115 556 210 766 349 748 494 1198 1298 1231 2197 30
821 -327 1638 -949 2170 -406 348 -860 554 -1408 640 -105 17 -559 33 -571 21z
m86 -122 c390 -32 834 -183 1181 -400 635 -397 1094 -1083 1218 -1819 44 -257
50 -559 16 -818 -119 -925 -719 -1729 -1569 -2103 -225 -99 -553 -189 -766
-210 -38 -3 -79 -8 -90 -10 -52 -11 -399 -3 -522 11 -897 104 -1681 654 -2087
1462 -197 393 -286 771 -286 1213 0 547 148 1044 445 1490 114 172 198 274
339 415 205 205 415 358 665 484 466 237 936 329 1456 285z"/>
<path d="M17075 44546 c-70 -30 -115 -115 -101 -190 25 -133 183 -191 283
-103 66 58 81 140 40 217 -40 76 -142 111 -222 76z"/>
<path d="M15974 44331 c-103 -47 -135 -184 -61 -267 39 -45 77 -65 130 -66
117 -2 195 96 173 216 -9 46 -50 94 -101 117 -51 23 -89 23 -141 0z"/>
<path d="M18160 44188 c-52 -15 -86 -43 -110 -94 -38 -78 -13 -172 59 -219 71
-47 147 -42 213 13 80 67 75 210 -9 270 -24 17 -98 44 -113 41 -3 0 -21 -5
-40 -11z"/>
<path d="M15135 43596 c-171 -77 -119 -335 68 -336 186 0 242 254 73 331 -48
22 -99 24 -141 5z"/>
<path d="M16672 43508 c-7 -7 -12 -22 -12 -34 0 -22 294 -1282 301 -1288 16
-15 1419 -944 1433 -949 29 -11 56 10 56 44 0 28 -32 51 -702 497 l-703 467
-27 110 c-15 61 -82 342 -149 625 -66 283 -125 521 -131 528 -13 15 -50 16
-66 0z"/>
<path d="M18886 43332 c-124 -43 -157 -206 -61 -291 92 -80 219 -58 273 49 12
24 22 60 22 79 0 55 -36 118 -83 145 -59 34 -94 38 -151 18z"/>
<path d="M14774 42542 c-122 -77 -117 -250 9 -311 54 -26 99 -27 152 -1 122
59 134 220 22 304 -40 29 -141 34 -183 8z"/>
<path d="M19084 42221 c-102 -46 -131 -184 -57 -272 115 -136 341 -25 302 149
-13 60 -41 96 -92 121 -53 26 -99 26 -153 2z"/>
<path d="M14975 41417 c-100 -57 -122 -179 -48 -268 49 -58 139 -76 210 -43
98 47 124 186 50 271 -58 65 -140 81 -212 40z"/>
<path d="M18723 41165 c-75 -45 -102 -138 -64 -221 78 -172 332 -112 331 78
-1 132 -151 212 -267 143z"/>
<path d="M15754 40599 c-42 -12 -101 -79 -110 -124 -22 -121 53 -215 171 -215
185 0 239 254 71 331 -44 20 -83 22 -132 8z"/>
<path d="M17917 40445 c-127 -45 -160 -212 -59 -297 65 -55 142 -59 213 -13
39 25 79 95 79 136 0 81 -59 159 -135 178 -53 13 -51 13 -98 -4z"/>
<path d="M16792 40219 c-124 -62 -122 -248 4 -309 172 -84 331 124 207 271
-51 61 -134 76 -211 38z"/>
<path d="M39592 42969 c-89 -15 -146 -53 -306 -202 -388 -363 -616 -623 -848
-967 -115 -170 -198 -305 -274 -447 -27 -51 -53 -93 -58 -93 -5 0 -232 223
-505 496 -375 377 -506 502 -540 518 -69 31 -190 29 -253 -4 -55 -30 -333
-286 -549 -508 -506 -517 -915 -1017 -1321 -1612 -46 -69 -165 -242 -263 -385
-98 -143 -184 -273 -190 -290 -36 -86 -22 -198 34 -278 47 -67 909 -919 1086
-1073 522 -455 820 -676 1575 -1164 206 -133 411 -266 455 -295 44 -29 104
-60 133 -69 74 -25 183 -23 254 4 59 22 64 26 249 181 456 382 992 705 1563
939 149 62 194 92 240 162 92 140 84 325 -19 447 -16 18 -101 88 -189 154 -89
66 -163 121 -164 123 -2 1 117 145 265 318 147 174 279 336 292 361 28 53 39
159 22 221 -23 85 -64 128 -223 236 -83 56 -152 107 -155 114 -8 22 189 353
330 554 184 264 308 408 640 750 142 146 270 284 284 307 77 131 62 304 -37
416 -22 25 -115 99 -207 165 -227 161 -362 270 -736 590 -174 149 -339 283
-365 296 -43 22 -66 28 -147 40 -11 2 -44 -1 -73 -5z m176 -118 c20 -10 172
-135 338 -278 165 -142 330 -282 367 -312 42 -34 64 -58 59 -65 -5 -6 -74 -92
-153 -191 -169 -211 -172 -215 -193 -285 -20 -67 -20 -132 -1 -196 29 -97 65
-137 272 -291 106 -80 193 -149 193 -153 0 -4 -39 -50 -86 -101 -175 -191
-400 -485 -534 -699 -30 -47 -150 -251 -268 -455 -117 -203 -223 -380 -234
-392 -27 -29 -82 -47 -125 -40 -38 7 -213 119 -348 224 -232 181 -488 422
-889 837 -175 181 -218 231 -222 258 -4 29 22 81 194 393 280 508 396 690 617
965 169 210 395 443 722 743 71 65 204 83 291 38z m-2739 -671 c23 -11 184
-168 392 -379 195 -199 418 -420 497 -493 78 -73 142 -135 142 -138 0 -4 -46
-90 -101 -191 -91 -165 -102 -190 -107 -245 -3 -45 0 -69 13 -95 23 -43 534
-567 742 -761 345 -320 641 -542 765 -574 65 -17 132 -4 195 39 40 28 62 58
160 227 62 107 116 195 120 195 9 0 151 -96 245 -165 37 -27 70 -61 82 -85 28
-55 28 -138 -1 -188 -17 -28 -468 -570 -538 -646 -11 -11 -51 15 -237 155
-452 340 -740 586 -1068 914 -245 245 -371 383 -659 728 -214 257 -253 292
-342 311 -116 25 -167 15 -544 -109 -591 -195 -1071 -423 -1517 -721 -66 -45
-581 -417 -668 -483 -8 -6 11 25 41 69 31 44 154 224 274 400 407 596 657 921
1040 1355 191 216 832 851 886 878 57 28 136 29 188 2z m3739 -147 c299 -216
279 -199 313 -268 28 -56 31 -72 27 -127 -2 -35 -13 -81 -23 -103 -11 -23 -89
-111 -189 -212 l-171 -173 -180 136 c-99 74 -192 147 -207 161 -68 65 -90 186
-50 274 17 38 316 419 329 419 2 0 70 -48 151 -107z m-3397 -1363 c20 -14 128
-135 241 -270 437 -524 820 -910 1273 -1286 148 -122 154 -127 665 -512 254
-191 425 -327 441 -350 57 -81 67 -193 24 -278 -41 -82 -75 -107 -250 -179
-599 -248 -1168 -600 -1648 -1018 -69 -60 -100 -80 -144 -93 -71 -21 -149 -14
-212 19 -48 24 -759 483 -991 640 -467 314 -889 651 -1330 1063 -254 237 -848
846 -865 888 l-15 34 378 275 c500 364 674 472 1077 668 253 123 473 210 795
316 341 113 342 113 440 110 72 -2 91 -6 121 -27z"/>
<path d="M39130 42065 c-7 -8 -10 -25 -6 -37 11 -44 436 -509 628 -688 310
-289 422 -364 447 -297 12 31 0 49 -61 93 -209 151 -555 492 -859 846 -67 78
-89 98 -110 98 -15 0 -32 -7 -39 -15z"/>
<path d="M38816 41614 c-27 -26 -19 -46 52 -134 151 -190 491 -520 755 -731
145 -117 178 -134 205 -107 29 29 13 56 -75 125 -269 208 -616 538 -792 751
-94 113 -115 127 -145 96z"/>
<path d="M10277 42948 c-19 -34 -8 -365 13 -378 23 -15 47 -12 65 7 16 15 17
35 10 192 -5 144 -10 178 -23 189 -24 18 -50 15 -65 -10z"/>
<path d="M10725 42262 c-38 -5 -55 -19 -55 -46 0 -43 15 -46 200 -46 124 0
180 4 188 12 19 19 15 66 -8 78 -19 10 -253 12 -325 2z"/>
<path d="M9599 42239 c-24 -24 -24 -41 -1 -62 16 -14 44 -17 189 -17 152 0
172 2 186 18 22 24 21 45 -2 66 -16 14 -42 16 -185 15 -151 -1 -170 -3 -187
-20z"/>
<path d="M10305 41853 c-15 -15 -17 -38 -13 -188 4 -183 9 -205 52 -205 43 0
46 15 46 197 0 160 -2 175 -20 193 -24 24 -43 25 -65 3z"/>
<path d="M42853 39824 c-148 -53 -231 -243 -173 -396 26 -69 92 -141 158 -171
68 -31 189 -30 254 2 63 31 125 92 151 149 34 72 31 200 -5 268 -34 64 -105
128 -165 148 -57 20 -164 19 -220 0z"/>
<path d="M16490 38466 c-117 -25 -111 -22 -872 -430 -33 -18 -58 -38 -58 -47
0 -9 -11 -21 -23 -26 -40 -18 -143 -121 -183 -181 -21 -31 -52 -95 -68 -142
l-31 -85 -2 -3175 -3 -3175 -47 -40 c-27 -22 -80 -70 -119 -107 -101 -98 -107
-97 -226 40 -114 129 -211 210 -303 253 -61 29 -77 32 -159 32 -114 0 -192
-20 -321 -82 -140 -67 -259 -156 -405 -301 -282 -280 -452 -545 -613 -960
-122 -312 -214 -623 -283 -955 -26 -126 -37 -163 -54 -177 -18 -15 -43 -17
-148 -17 -273 0 -474 -61 -660 -201 -429 -323 -547 -879 -297 -1408 224 -474
783 -946 1515 -1283 123 -56 380 -149 414 -149 25 0 41 -175 40 -450 0 -238
-2 -264 -28 -385 -102 -487 -348 -861 -766 -1167 -81 -59 -229 -152 -299 -187
-45 -23 -69 -24 -251 -6 -25 2 -108 7 -185 10 -77 2 -210 7 -295 11 -319 12
-723 -23 -945 -81 -472 -123 -881 -440 -1177 -911 -284 -452 -484 -1076 -582
-1815 -23 -173 -28 -218 -42 -371 -3 -35 -7 -81 -9 -103 -14 -148 -26 -470
-28 -751 -2 -303 9 -850 18 -877 2 -7 6 -70 10 -142 3 -71 8 -157 11 -190 38
-479 83 -926 93 -937 4 -4 40 0 81 9 115 25 359 23 476 -5 187 -44 275 -83
474 -212 1440 -928 3094 -1556 4765 -1809 427 -65 575 -80 1485 -151 799 -63
885 -70 1075 -85 33 -3 176 -14 318 -26 338 -26 482 -63 742 -188 655 -316
1105 -979 1159 -1706 3 -38 6 -1276 8 -2750 2 -1474 4 -2766 6 -2871 l3 -191
67 -11 c37 -6 175 -29 307 -52 1188 -204 2812 -397 3845 -456 l125 -7 -64 69
c-382 414 -598 661 -860 989 -757 944 -1346 1911 -1708 2805 -91 226 -193 524
-193 566 0 36 36 80 73 89 16 4 79 -11 182 -44 130 -42 169 -51 230 -51 84 0
181 27 237 65 20 14 44 25 52 25 8 0 59 -21 113 -46 257 -120 671 -290 968
-397 664 -241 1197 -373 1730 -431 126 -14 464 -18 548 -7 181 24 372 93 672
241 1013 501 2725 1804 4848 3693 l357 318 83 -54 c205 -135 471 -222 782
-257 136 -15 438 -12 593 6 824 94 1587 495 1939 1019 82 121 150 288 168 408
4 28 12 47 20 47 7 0 60 23 117 52 87 44 116 64 188 137 102 103 123 141 128
239 18 329 -432 817 -987 1068 -420 190 -864 251 -1361 188 -191 -24 -453 -92
-610 -158 -215 -91 -327 -175 -640 -480 -492 -479 -651 -597 -1410 -1049
-1183 -703 -2404 -1324 -3337 -1697 -616 -247 -1086 -387 -1533 -456 -144 -23
-513 -26 -605 -6 -99 22 -186 52 -255 89 -114 62 -513 480 -855 898 -95 116
-106 133 -100 160 3 16 16 106 30 200 69 483 57 938 -35 1320 -69 288 -132
427 -324 720 -69 104 -124 190 -123 191 2 2 71 -11 422 -76 121 -23 254 -47
295 -55 133 -24 874 -162 1260 -234 206 -38 425 -79 485 -90 61 -11 219 -40
352 -65 159 -30 269 -46 322 -46 107 0 284 32 411 73 160 53 2714 1132 2805
1185 276 161 471 413 553 710 l27 97 3 883 c1 485 5 882 7 882 3 0 566 -101
1253 -225 686 -124 1398 -253 1582 -286 184 -33 369 -66 410 -74 148 -27 251
-46 665 -120 231 -42 717 -130 1080 -195 363 -66 693 -125 732 -132 l73 -12
107 -130 c135 -164 409 -439 572 -575 659 -549 1415 -896 2245 -1031 942 -153
1938 0 2795 429 645 324 1204 794 1657 1396 171 226 311 459 449 740 479 983
598 2131 330 3189 -154 609 -431 1188 -802 1679 -771 1019 -1909 1674 -3163
1821 -306 36 -693 40 -970 11 -123 -13 -294 -36 -335 -45 -22 -5 -48 -10 -57
-10 -17 0 -18 75 -18 1431 l0 1432 138 -134 c432 -421 1000 -802 1560 -1048
l93 -41 62 16 c204 52 577 210 884 373 577 306 1110 703 1622 1206 577 568
1038 1172 1473 1930 120 209 422 807 438 867 13 45 -7 93 -43 108 -12 5 -116
30 -230 55 -857 188 -1680 494 -2244 833 -307 185 -537 370 -740 595 -51 56
-67 67 -93 67 -17 0 -40 -4 -50 -10 -10 -5 -58 -63 -107 -127 -154 -205 -444
-488 -686 -666 -541 -400 -1178 -684 -1925 -856 -73 -17 -137 -31 -142 -31 -5
0 -10 208 -12 463 l-3 462 -29 84 c-55 157 -172 299 -309 375 -113 62 -70 53
-977 216 -811 145 -1280 230 -1640 295 -162 30 -461 84 -665 120 -926 167
-1476 266 -1550 280 -78 14 -542 98 -1690 305 -308 55 -744 134 -970 175 -225
41 -750 135 -1165 210 -777 140 -1245 224 -1385 250 -44 8 -181 33 -305 55
-124 22 -261 47 -305 55 -44 8 -366 66 -715 129 -349 63 -950 171 -1335 241
-385 69 -961 173 -1280 231 -319 57 -890 160 -1270 229 -619 112 -939 169
-2225 401 -201 36 -498 90 -660 119 -162 30 -461 84 -665 120 -926 167 -1476
266 -1550 280 -538 100 -1266 227 -1325 230 -43 3 -103 -1 -140 -9z m76 -621
c672 -122 1280 -231 2159 -390 292 -53 1016 -184 1610 -291 1262 -228 1415
-255 2040 -368 259 -47 720 -130 1025 -185 305 -55 794 -144 1085 -196 292
-53 991 -179 1555 -281 564 -102 1284 -232 1600 -289 316 -57 913 -165 1325
-239 413 -74 964 -174 1225 -221 2434 -440 3585 -648 3653 -660 45 -8 345 -62
667 -120 610 -110 1275 -231 1855 -335 1225 -221 1199 -216 1271 -251 88 -41
189 -140 233 -227 51 -101 59 -164 61 -472 l1 -278 -53 -6 c-71 -8 -343 -24
-498 -30 -125 -5 -125 -5 -152 -36 -33 -36 -34 -45 -8 -188 101 -563 346
-1218 648 -1733 l62 -106 0 -1994 0 -1995 -147 -59 c-773 -310 -1465 -838
-1972 -1504 -752 -989 -1076 -2214 -915 -3461 91 -706 371 -1433 778 -2025 41
-60 74 -111 72 -112 -2 -2 -277 46 -612 106 -875 159 -1530 277 -2694 487
-564 102 -1284 232 -1600 289 -316 57 -912 165 -1325 239 -412 74 -964 174
-1225 221 -2515 455 -3585 647 -3653 660 -45 8 -280 50 -522 94 -423 77 -848
153 -1750 316 -231 42 -604 109 -830 150 -657 119 -1827 330 -2250 406 -214
38 -448 81 -520 94 -71 13 -292 53 -490 89 -198 35 -634 114 -970 175 -335 60
-790 142 -1010 182 -220 39 -405 76 -411 80 -27 22 -49 172 -48 329 1 190 27
318 111 545 151 408 315 739 428 862 l50 54 155 -15 c322 -33 592 -27 690 15
90 39 189 167 230 299 24 75 37 303 43 780 3 162 8 302 12 310 4 8 87 86 185
173 222 196 235 222 185 339 -5 13 -2 20 11 24 178 58 288 196 337 423 38 174
22 642 -24 697 -17 20 -25 19 -425 -44 l-302 -48 -11 91 c-6 49 -23 138 -38
196 l-25 107 87 98 c357 406 567 811 616 1189 15 114 6 374 -16 475 -44 204
-149 453 -276 655 -264 422 -524 611 -1015 737 -121 31 -139 33 -299 33 -180
0 -245 -9 -430 -62 -204 -58 -473 -180 -665 -301 l-95 -60 -3 3110 c-2 3434
-7 3174 61 3302 84 158 261 265 438 266 55 0 258 -33 715 -115z m25394 -3481
c441 -341 1015 -622 1765 -867 305 -100 696 -205 971 -263 l132 -27 -15 -36
c-34 -85 -270 -551 -365 -721 -742 -1332 -1710 -2362 -2868 -3055 -172 -102
-574 -303 -750 -373 -69 -28 -181 -69 -250 -92 l-125 -42 -75 33 c-302 130
-743 389 -1035 609 -972 730 -1670 1795 -1975 3010 -29 116 -70 321 -70 351 0
14 24 17 175 22 595 23 1199 118 1720 272 968 285 1797 811 2292 1456 l74 96
147 -146 c81 -80 194 -183 252 -227z m-24580 -5975 c21 -76 40 -190 40 -235 0
-37 -3 -44 -22 -49 -13 -2 -212 -34 -443 -70 -231 -36 -433 -68 -450 -70 -16
-3 24 14 90 38 305 112 566 252 710 381 28 25 53 45 57 46 4 0 12 -19 18 -41z
m807 -336 c4 -43 8 -161 8 -263 0 -207 -15 -298 -65 -405 -53 -112 -138 -182
-241 -200 -36 -7 -36 -6 -76 62 -133 224 -247 526 -279 738 l-6 43 48 8 c27 4
168 26 314 49 146 24 270 44 277 44 7 1 14 -28 20 -76z m-740 -115 c40 -248
179 -588 344 -838 32 -50 59 -101 59 -113 0 -26 -36 -62 -242 -246 -111 -99
-139 -129 -147 -159 -6 -20 -15 -251 -21 -512 -6 -261 -15 -498 -20 -527 -4
-28 -20 -76 -35 -107 -34 -73 -125 -171 -173 -188 -55 -19 -467 -16 -651 5
l-144 17 -42 -24 c-126 -74 -328 -445 -508 -931 -98 -267 -127 -405 -127 -608
0 -203 35 -350 121 -517 99 -191 243 -332 482 -471 72 -42 137 -110 137 -143
0 -55 -100 -112 -298 -171 -854 -251 -1852 -326 -2652 -199 -723 115 -1308
390 -1728 814 -104 105 -119 130 -108 175 10 41 36 56 188 105 615 201 1079
490 1382 864 295 363 441 822 422 1326 -3 91 -8 176 -10 190 -2 14 -7 51 -11
82 l-6 58 43 -5 c103 -13 320 -22 403 -18 269 13 562 81 702 164 79 47 189
159 245 249 118 190 200 498 210 787 2 46 4 83 6 83 1 0 35 -33 75 -72 117
-118 248 -181 406 -196 101 -10 246 2 277 23 47 31 17 92 -40 81 -155 -28
-305 -13 -421 45 -262 129 -439 533 -331 754 80 163 294 210 496 109 77 -39
127 -87 203 -194 54 -76 83 -94 113 -70 25 22 15 57 -41 135 -31 43 -54 79
-52 82 4 4 1037 168 1312 209 55 8 105 17 110 19 6 2 21 4 35 4 24 1 26 -3 37
-71z m22518 -833 c480 -50 955 -180 1398 -381 l129 -58 -7 -55 c-14 -127 -52
-217 -121 -291 -70 -75 -126 -95 -259 -94 -94 1 -124 5 -209 32 -113 37 -145
39 -202 13 -51 -23 -81 -64 -106 -144 -37 -117 -33 -348 8 -526 61 -263 158
-244 345 69 34 58 69 113 77 122 23 27 77 33 108 13 45 -29 58 -77 58 -210 1
-222 -18 -275 -114 -319 -40 -18 -66 -21 -215 -22 -179 -1 -214 -7 -276 -49
-60 -39 -79 -87 -79 -197 0 -107 -19 -207 -50 -268 -12 -23 -46 -69 -77 -102
-82 -89 -108 -152 -108 -258 1 -93 15 -133 61 -169 85 -67 207 18 417 287 128
164 215 252 273 277 27 11 58 15 100 13 52 -3 85 -16 222 -82 210 -102 282
-111 359 -43 49 43 71 96 93 228 11 61 25 118 32 126 37 45 167 -32 244 -144
64 -94 73 -179 26 -242 -10 -14 -59 -60 -108 -101 -139 -118 -159 -182 -87
-284 28 -39 65 -63 182 -114 123 -55 112 -153 -23 -214 -42 -19 -68 -23 -151
-23 l-101 0 -106 53 c-130 64 -168 69 -255 36 -95 -35 -118 -32 -167 19 -23
23 -60 74 -84 114 -52 88 -82 113 -134 113 -57 0 -134 -41 -282 -152 -81 -60
-181 -123 -261 -164 -217 -112 -309 -181 -363 -273 -32 -55 -33 -120 -3 -271
25 -125 27 -249 6 -386 -35 -234 0 -414 103 -526 100 -108 279 -143 530 -102
53 8 151 16 217 16 183 2 283 -35 342 -124 l28 -42 7 -305 c7 -331 18 -415 62
-481 73 -111 109 -218 108 -327 -1 -114 -31 -201 -132 -378 -79 -139 -113
-293 -113 -510 1 -164 20 -271 64 -363 23 -47 39 -67 64 -79 43 -21 70 -13
143 42 66 50 138 128 315 342 65 78 176 197 248 264 139 131 195 205 287 379
148 278 252 639 239 829 -3 54 -14 99 -37 156 -59 145 -36 223 136 451 109
145 119 166 140 273 22 111 13 163 -52 288 -52 101 -54 109 -54 183 0 115 36
208 137 354 30 43 61 93 69 112 45 108 -22 265 -161 376 -62 49 -69 73 -25 81
86 18 213 -37 297 -127 112 -119 185 -294 248 -597 84 -398 136 -539 201 -539
17 0 38 20 81 78 65 86 61 63 53 292 -4 111 11 154 84 248 51 66 96 152 122
235 10 31 21 54 25 50 18 -19 72 -365 93 -598 18 -191 13 -655 -8 -853 -39
-357 -112 -693 -222 -1013 -67 -196 -65 -193 -111 -207 -64 -19 -191 -108
-275 -192 -89 -89 -121 -148 -137 -257 -27 -177 -142 -333 -345 -467 -113 -74
-198 -154 -232 -217 -17 -30 -19 -59 -20 -239 l-2 -205 -98 -94 c-525 -498
-1254 -896 -1969 -1075 -641 -160 -1316 -181 -1950 -60 -882 169 -1677 586
-2324 1219 -1082 1060 -1565 2548 -1315 4055 49 296 150 653 265 938 191 473
520 1002 832 1337 l65 70 -4 -40 c-16 -166 -40 -237 -167 -487 -194 -380 -248
-630 -251 -1148 0 -183 1 -201 27 -292 76 -274 248 -612 467 -918 167 -233
289 -345 352 -321 60 23 87 95 95 257 10 186 -38 397 -147 644 -123 280 -120
492 7 516 50 9 76 -1 139 -56 79 -69 152 -102 239 -108 66 -4 73 -2 103 23 41
35 58 95 72 255 6 76 16 133 25 147 16 23 29 34 161 132 90 67 110 90 174 205
78 138 204 233 455 343 183 80 249 117 262 144 7 14 13 64 13 119 0 127 17
198 86 371 44 109 58 157 58 198 1 51 -1 55 -47 97 -110 100 -242 82 -444 -60
-166 -116 -248 -141 -307 -95 -30 24 -60 78 -69 126 -22 114 78 303 201 382
75 48 127 62 272 71 160 11 241 34 294 86 71 69 73 157 4 226 -51 51 -118 81
-183 82 -44 0 -75 -11 -231 -86 -368 -177 -527 -226 -749 -235 -77 -2 -164 -1
-194 4 l-54 8 119 81 c658 450 1421 714 2239 774 160 12 596 4 770 -15z
m-23905 -3859 c79 -14 1547 -279 2995 -541 347 -63 668 -121 715 -129 47 -8
510 -92 1030 -186 520 -94 981 -177 1025 -185 44 -8 418 -75 830 -150 413 -74
851 -153 975 -176 124 -22 233 -43 243 -45 16 -5 17 -53 17 -833 0 -683 -3
-843 -15 -912 -55 -317 -269 -606 -580 -782 -122 -69 -1215 -532 -1230 -521
-7 5 -71 77 -142 159 -1177 1365 -2496 2530 -3628 3204 -661 395 -1110 581
-1951 811 -140 38 -259 72 -264 75 -28 17 -150 205 -150 230 0 3 10 3 23 0 12
-3 60 -11 107 -19z m8454 -1527 c275 -49 787 -141 1136 -204 349 -63 671 -121
715 -130 71 -13 1015 -184 1220 -220 44 -8 467 -84 939 -170 473 -85 861 -155
863 -155 8 0 2 -1419 -7 -1512 -36 -380 -278 -718 -645 -901 -97 -48 -2005
-850 -2086 -876 -90 -29 -246 -59 -354 -66 -87 -6 -130 1 -1220 200 -621 113
-1435 262 -1809 330 -617 112 -680 126 -694 146 -18 26 -301 375 -379 468 -30
35 -51 67 -46 71 4 4 249 109 543 235 294 125 567 243 605 263 271 136 494
371 605 639 38 91 76 235 83 318 3 33 6 419 6 858 1 580 4 797 12 797 6 0 237
-41 513 -91z m8926 -4073 c185 -11 454 -67 624 -131 194 -73 408 -189 566
-306 100 -74 272 -238 341 -325 102 -128 173 -273 185 -377 9 -77 -17 -126
-116 -220 -171 -165 -340 -209 -845 -222 -286 -8 -434 -21 -575 -50 -158 -32
-264 -72 -475 -177 -338 -170 -710 -345 -810 -383 -136 -51 -253 -79 -430
-105 -285 -41 -400 -97 -630 -306 -652 -593 -1498 -1324 -2161 -1870 -1811
-1491 -3059 -2315 -3707 -2448 -128 -27 -444 -23 -717 9 -471 55 -1076 218
-1730 465 -269 102 -869 356 -892 379 -4 4 12 37 37 73 120 179 373 615 558
963 374 700 693 1525 837 2158 19 80 25 96 35 85 7 -7 63 -74 125 -148 291
-350 653 -732 759 -799 79 -50 190 -94 301 -118 120 -26 505 -26 670 0 1101
172 2795 914 4815 2110 825 488 1004 620 1480 1087 133 130 286 270 344 313
115 87 295 180 436 226 189 61 445 107 658 119 128 8 149 7 317 -2z m1260
-1657 c0 -33 -47 -163 -89 -247 -204 -405 -761 -793 -1401 -975 -283 -81 -518
-116 -805 -122 -341 -7 -634 45 -870 155 -90 41 -225 124 -225 138 0 18 186
175 249 210 102 57 175 79 358 106 349 54 466 98 1141 435 184 91 363 173 415
190 176 56 338 78 651 86 226 6 456 22 521 35 22 4 43 8 48 9 4 0 7 -8 7 -20z"/>
<path d="M18934 35116 c-57 -27 -96 -71 -119 -135 -13 -39 -15 -572 -15 -4820
0 -5289 -6 -4841 65 -4914 20 -20 49 -44 65 -52 16 -8 379 -78 807 -155 428
-78 924 -167 1103 -200 179 -32 492 -89 695 -125 204 -37 528 -95 720 -130
193 -35 528 -96 745 -135 217 -39 681 -123 1030 -186 786 -142 1415 -255 1885
-340 198 -36 482 -87 630 -114 149 -27 461 -83 695 -125 234 -42 583 -105 775
-140 193 -35 528 -96 745 -135 217 -39 555 -100 750 -135 486 -88 1661 -300
2135 -386 215 -38 536 -96 715 -129 357 -64 901 -163 1304 -235 228 -41 264
-45 304 -35 77 19 136 70 167 144 13 31 15 629 15 4828 0 3375 -3 4804 -11
4832 -13 48 -76 117 -126 139 -21 9 -139 35 -263 57 -124 22 -261 47 -305 55
-44 8 -244 44 -445 80 -201 37 -525 95 -720 130 -955 173 -1333 241 -1765 319
-721 130 -2990 540 -3355 606 -179 32 -491 89 -695 125 -203 37 -527 95 -720
130 -192 35 -528 96 -745 135 -217 39 -555 100 -750 135 -195 35 -569 103
-830 150 -261 47 -585 106 -720 130 -135 25 -409 74 -610 110 -201 36 -486 88
-635 115 -148 27 -461 83 -695 125 -234 42 -582 105 -775 140 -779 142 -914
165 -956 165 -25 0 -66 -10 -95 -24z m599 -156 c276 -50 662 -120 857 -155
195 -36 569 -103 830 -150 261 -47 585 -106 720 -130 135 -25 571 -103 970
-175 399 -72 898 -162 1110 -201 212 -38 522 -94 690 -124 168 -30 341 -62
385 -70 75 -13 219 -40 1075 -194 550 -99 1270 -229 1505 -271 121 -22 245
-44 275 -50 101 -19 761 -138 1075 -194 171 -31 346 -63 390 -71 44 -8 229
-41 410 -74 753 -136 1207 -218 2130 -385 465 -84 1184 -213 1540 -277 526
-94 509 -90 540 -149 13 -26 15 -546 15 -4820 0 -4303 -2 -4794 -16 -4821 -31
-61 -91 -79 -191 -59 -26 5 -226 41 -443 80 -217 39 -541 97 -720 130 -1007
182 -2482 448 -2830 511 -151 27 -311 56 -355 64 -44 8 -393 71 -775 140 -382
69 -868 157 -1080 195 -338 61 -588 106 -1555 280 -121 22 -245 44 -275 50
-93 17 -748 136 -1080 195 -173 32 -499 90 -725 131 -225 41 -547 99 -715 129
-168 30 -341 62 -385 70 -82 15 -470 85 -1080 195 -187 34 -511 92 -720 130
-209 38 -546 99 -750 135 -203 37 -527 95 -720 130 -192 35 -414 75 -493 89
-161 29 -194 43 -222 89 -20 32 -20 89 -20 4820 0 4081 2 4792 14 4815 23 45
51 65 114 81 2 1 229 -40 505 -89z"/>
<path d="M20048 32646 c-27 -14 -35 -48 -15 -68 8 -8 81 -26 163 -41 178 -33
727 -132 1199 -217 187 -34 599 -108 915 -165 833 -151 2116 -382 2212 -399
46 -9 421 -76 833 -151 413 -74 1063 -192 1445 -261 382 -69 844 -152 1025
-185 182 -33 366 -66 410 -74 44 -8 503 -91 1020 -184 517 -94 978 -177 1025
-185 88 -16 609 -110 1220 -220 195 -36 584 -106 864 -157 l509 -92 19 23 c22
27 22 31 5 54 -15 20 -21 21 -1407 271 -844 152 -1234 222 -1805 326 -214 38
-514 92 -665 119 -151 28 -300 55 -330 60 -66 13 -617 112 -1160 210 -217 39
-541 97 -720 130 -179 32 -491 89 -695 125 -203 37 -527 95 -720 130 -192 35
-528 96 -745 135 -217 39 -557 100 -755 136 -198 36 -484 87 -635 115 -151 27
-311 56 -355 64 -44 8 -231 42 -415 75 -184 33 -371 67 -415 75 -44 8 -368 67
-720 130 -1045 188 -1249 225 -1267 229 -9 2 -27 -2 -40 -8z"/>
<path d="M20035 31720 c-21 -23 -14 -66 13 -74 9 -3 105 -21 212 -40 107 -19
332 -60 500 -90 307 -56 1066 -193 1475 -266 121 -22 245 -44 275 -50 93 -17
748 -136 1080 -195 173 -32 500 -90 725 -131 226 -41 547 -99 715 -129 168
-30 341 -62 385 -70 44 -8 229 -41 410 -74 182 -33 492 -89 690 -125 198 -35
563 -101 810 -146 499 -90 797 -144 1385 -250 217 -39 519 -93 670 -120 151
-28 298 -54 325 -59 28 -6 217 -40 420 -77 204 -36 539 -97 745 -134 254 -46
380 -65 392 -59 9 5 20 19 23 30 15 48 -3 53 -505 143 -887 160 -2695 486
-2775 501 -79 14 -515 93 -1225 221 -201 36 -522 94 -715 129 -192 35 -528 96
-745 135 -217 39 -629 113 -915 165 -286 52 -934 169 -1440 260 -506 91 -1041
188 -1190 215 -148 27 -461 83 -695 125 -234 42 -558 101 -722 131 -163 30
-298 54 -301 54 -2 0 -12 -9 -22 -20z"/>
<path d="M20081 30799 c-27 -11 -30 -64 -3 -78 14 -7 508 -100 807 -151 28 -5
149 -27 270 -49 121 -22 258 -47 305 -55 47 -8 436 -78 864 -156 429 -77 816
-147 860 -155 45 -8 295 -53 556 -100 261 -47 536 -97 610 -110 74 -13 322
-58 550 -99 800 -144 1927 -347 2115 -381 105 -19 377 -68 605 -109 228 -41
1054 -190 1835 -331 1247 -224 1998 -360 3109 -560 309 -56 328 -57 339 -15
13 51 18 50 -793 194 -421 76 -799 144 -840 151 -41 8 -212 39 -380 69 -168
30 -606 109 -975 176 -810 146 -1931 348 -2000 360 -27 5 -277 50 -555 100
-278 50 -552 100 -610 110 -97 17 -868 156 -2135 385 -286 51 -671 121 -855
154 -184 33 -522 94 -750 135 -228 41 -453 82 -500 90 -210 37 -724 130 -920
166 -118 22 -253 46 -300 54 -47 8 -312 56 -590 106 -627 114 -593 108 -619
99z"/>
<path d="M20036 29884 c-23 -22 -20 -51 7 -68 12 -8 299 -64 637 -125 338 -61
1038 -187 1555 -280 517 -93 1392 -251 1945 -351 553 -99 1024 -184 1047 -189
31 -6 47 -5 63 6 22 16 27 55 7 71 -6 6 -89 24 -182 41 -200 36 -1475 266
-3553 641 -822 149 -1497 270 -1502 270 -5 0 -16 -7 -24 -16z"/>
<path d="M20038 28969 c-25 -14 -23 -56 5 -73 12 -7 254 -55 537 -106 725
-130 2817 -507 4020 -725 297 -54 1412 -255 2210 -399 322 -58 718 -130 880
-160 246 -45 298 -51 315 -41 24 15 27 64 5 77 -8 4 -627 118 -1375 253 -748
135 -1396 252 -1440 260 -84 16 -1180 213 -1325 239 -47 8 -209 38 -360 65
-151 28 -313 57 -360 65 -135 24 -747 134 -835 151 -74 14 -937 170 -1852 334
-215 39 -395 71 -400 71 -4 0 -16 -5 -25 -11z"/>
<path d="M29212 28228 c-17 -17 -15 -53 3 -68 23 -19 3646 -670 3667 -659 21
11 24 61 6 77 -7 5 -65 19 -128 30 -63 11 -740 134 -1505 272 -764 138 -1489
268 -1610 290 -121 22 -256 47 -300 55 -97 18 -117 19 -133 3z"/>
<path d="M19985 28056 c-13 -19 -14 -29 -5 -45 13 -24 -4 -20 280 -71 124 -22
248 -44 275 -50 28 -5 214 -39 415 -75 492 -89 1989 -360 2120 -385 58 -10
157 -29 220 -40 237 -42 2159 -391 2260 -410 99 -18 2211 -401 3645 -660 363
-66 707 -129 765 -140 58 -11 218 -40 355 -64 138 -25 760 -138 1384 -251 624
-113 1147 -205 1164 -203 39 4 53 38 29 67 -15 18 -198 53 -1372 266 -745 135
-1627 295 -1960 356 -333 60 -1089 197 -1680 304 -591 107 -1111 202 -1155
210 -44 8 -478 87 -965 175 -487 88 -932 169 -990 180 -58 11 -242 44 -410 74
-317 57 -2081 377 -3507 636 -453 83 -829 150 -838 150 -8 0 -22 -11 -30 -24z"/>
<path d="M20033 27129 c-17 -17 -16 -54 1 -68 13 -11 239 -53 1561 -292 215
-38 552 -99 750 -135 198 -36 484 -87 635 -115 151 -27 311 -56 355 -64 44 -8
229 -41 410 -74 605 -109 1117 -201 1445 -261 179 -32 492 -89 695 -125 785
-142 1083 -196 1160 -210 44 -8 382 -69 750 -135 688 -124 1159 -209 1300
-235 44 -8 231 -42 415 -75 184 -33 371 -67 415 -75 44 -8 116 -21 160 -29 82
-15 107 -11 119 20 4 9 0 27 -8 39 -15 22 -3 20 -426 95 -58 11 -305 55 -550
100 -245 44 -620 112 -835 151 -214 38 -487 87 -605 109 -118 22 -253 46 -300
54 -47 8 -422 76 -835 151 -412 74 -1063 192 -1445 261 -382 69 -954 172
-1270 229 -992 180 -2126 384 -2212 399 -111 20 -779 141 -1218 221 -429 78
-451 81 -467 64z"/>
<path d="M30282 27118 c-14 -14 -15 -47 -3 -67 5 -7 42 -19 82 -26 41 -8 227
-41 414 -75 187 -34 399 -72 470 -85 72 -13 396 -71 720 -130 325 -59 613
-111 640 -115 28 -5 96 -17 152 -28 108 -19 137 -16 146 17 14 54 33 49 -948
225 -506 91 -956 172 -1000 181 -208 39 -637 115 -648 115 -7 0 -18 -5 -25
-12z"/>
<path d="M41452 34068 c-7 -7 -12 -24 -12 -39 0 -22 17 -38 108 -102 729 -510
1580 -915 2263 -1077 101 -25 121 -23 138 9 20 36 -14 59 -129 86 -522 126
-1176 410 -1775 773 -130 79 -417 267 -509 333 -42 31 -65 36 -84 17z"/>
<path d="M41068 33749 c-10 -6 -18 -22 -18 -37 0 -22 30 -56 148 -173 253
-251 295 -282 330 -247 30 30 12 55 -125 181 -76 69 -174 162 -218 206 -44 45
-84 81 -90 81 -5 0 -18 -5 -27 -11z"/>
<path d="M40626 33405 c-9 -9 -16 -24 -16 -33 0 -22 131 -191 260 -337 143
-161 453 -462 620 -601 366 -306 743 -557 1145 -763 206 -106 372 -181 399
-181 50 0 62 64 16 87 -14 6 -119 57 -235 113 -309 149 -561 297 -835 489
-477 334 -914 742 -1222 1141 -76 98 -102 115 -132 85z"/>
<path d="M40132 33168 c-21 -21 -13 -46 42 -138 271 -449 765 -1000 1266
-1411 309 -254 699 -517 1004 -678 71 -38 81 -40 100 -28 12 8 22 26 24 40 4
29 15 22 -182 132 -819 460 -1599 1178 -2077 1915 -49 74 -95 145 -104 158
-17 24 -54 29 -73 10z"/>
<path d="M41829 33049 c-18 -34 12 -63 187 -182 478 -325 951 -554 1439 -697
144 -42 167 -42 178 0 9 35 -24 56 -143 90 -486 138 -996 388 -1472 721 -133
94 -168 106 -189 68z"/>
<path d="M39578 32906 c-9 -22 -3 -41 51 -153 211 -435 562 -956 897 -1330 66
-73 95 -88 122 -61 24 24 11 55 -54 128 -335 380 -631 816 -854 1259 -87 173
-92 181 -121 181 -21 0 -32 -7 -41 -24z"/>
<path d="M39103 31025 c-26 -18 -30 -57 -9 -74 10 -8 89 -11 275 -11 143 1
265 -1 270 -5 24 -14 7 -44 -59 -103 -75 -68 -92 -102 -79 -162 5 -21 23 -48
43 -67 31 -29 43 -33 90 -33 72 0 80 -14 55 -89 -24 -68 -17 -111 23 -157 39
-44 68 -48 225 -35 70 7 157 14 193 17 36 2 87 7 113 10 77 8 77 9 77 -205 0
-197 3 -211 46 -211 39 0 44 20 51 207 6 196 1 233 -43 274 -23 22 -34 24
-122 24 -53 0 -133 -3 -177 -7 -44 -5 -128 -11 -187 -14 -125 -8 -132 -3 -104
75 9 25 16 61 16 80 0 76 -75 139 -151 127 -31 -5 -40 -3 -49 13 -16 31 -13
36 54 91 104 84 119 165 46 235 l-31 30 -272 3 c-236 2 -275 1 -294 -13z"/>
<path d="M40992 31028 c-37 -37 15 -92 251 -271 212 -162 577 -387 626 -387
25 0 50 35 44 60 -3 11 -53 45 -125 85 -213 118 -461 289 -663 458 -79 66
-109 79 -133 55z"/>
<path d="M38605 26959 c-142 -19 -251 -64 -305 -126 -26 -29 -28 -36 -18 -63
6 -18 27 -43 51 -58 34 -23 54 -27 136 -32 53 -3 106 -11 117 -17 12 -7 32
-34 45 -60 22 -46 23 -61 30 -348 3 -165 11 -314 16 -331 31 -91 99 -179 159
-206 39 -17 46 -17 78 -4 46 19 70 59 107 181 43 137 71 187 122 215 183 101
405 289 452 383 29 58 33 146 11 210 -49 136 -216 219 -491 242 -44 4 -82 9
-85 10 -16 9 -364 12 -425 4z"/>
<path d="M37180 22654 c-78 -21 -139 -60 -155 -97 -7 -18 -15 -84 -19 -147
-14 -261 -81 -484 -179 -599 -94 -109 -113 -211 -99 -526 11 -244 21 -286 77
-353 48 -55 107 -91 279 -166 268 -118 276 -132 296 -506 23 -451 55 -841 81
-995 28 -165 209 -605 310 -751 77 -112 204 -144 228 -57 14 51 1 106 -72 305
-76 206 -89 254 -88 331 1 86 16 127 74 209 97 136 180 271 253 413 87 167
120 251 139 354 18 92 55 170 99 209 19 17 67 40 113 55 112 36 209 84 233
114 29 37 26 65 -26 225 -91 284 -74 341 138 459 114 63 143 104 143 202 -1
87 -24 138 -94 206 -63 61 -121 91 -271 141 -207 67 -346 164 -401 276 -19 40
-23 63 -21 124 1 41 -3 88 -10 103 -15 38 -74 70 -188 103 -138 39 -199 72
-261 145 -121 138 -143 160 -194 184 -114 53 -271 69 -385 39z"/>
<path d="M10875 37563 c-806 -60 -1605 -434 -2325 -1088 -157 -142 -398 -400
-407 -434 -8 -30 28 -64 56 -53 10 4 61 54 113 112 545 603 1263 1067 1948
1256 264 74 445 102 705 111 399 13 754 -62 1074 -228 175 -90 310 -187 450
-323 184 -180 296 -335 411 -571 446 -913 301 -2183 -379 -3320 -69 -115 -72
-122 -66 -168 17 -138 174 -451 416 -829 48 -76 86 -138 85 -138 -2 0 -95 33
-207 74 -414 151 -706 219 -834 195 -42 -8 -61 -22 -178 -136 -412 -396 -838
-692 -1290 -893 -1320 -588 -2577 -258 -3117 820 -134 268 -223 586 -248 885
-11 143 -8 560 6 675 30 241 94 551 155 741 25 81 23 113 -11 123 -47 15 -64
-19 -131 -277 -143 -544 -167 -1108 -65 -1588 132 -627 466 -1127 964 -1442
243 -154 575 -268 898 -308 116 -14 381 -17 507 -6 821 73 1674 496 2367 1175
l147 144 61 -1 c149 -2 595 -134 995 -295 115 -46 142 -48 156 -9 6 17 -16 58
-103 195 -272 424 -448 747 -478 877 -8 30 -2 45 61 150 352 586 579 1274 630
1907 11 141 8 507 -6 614 -68 525 -229 939 -495 1275 -207 261 -483 473 -778
599 -210 90 -391 137 -662 171 -58 7 -360 13 -425 8z"/>
<path d="M42896 37369 c-110 -38 -195 -114 -244 -219 -23 -48 -26 -68 -27
-165 0 -99 3 -116 27 -167 46 -100 141 -185 244 -222 97 -34 229 -22 324 30
67 36 145 121 178 191 37 82 43 206 13 294 -71 213 -306 330 -515 258z m259
-104 c110 -49 179 -158 179 -282 1 -225 -232 -375 -439 -284 -57 25 -124 93
-155 156 -35 73 -34 180 1 256 75 160 253 227 414 154z"/>
<path d="M10260 36828 c-225 -25 -507 -141 -727 -300 -80 -57 -224 -192 -243
-227 -7 -14 19 -59 121 -212 71 -107 133 -195 138 -197 4 -1 28 23 52 55 62
83 179 195 261 250 86 57 162 88 271 112 274 59 467 -17 562 -224 47 -101 60
-165 59 -295 -1 -173 -30 -295 -145 -601 -32 -85 -69 -193 -82 -240 -63 -215
-76 -457 -37 -649 18 -91 36 -144 118 -342 8 -21 19 -38 25 -38 9 0 419 131
426 136 2 2 -18 60 -43 129 -124 337 -113 552 50 977 148 385 187 541 187 753
0 107 -5 161 -21 232 -72 315 -272 550 -547 642 -145 48 -254 58 -425 39z"/>
<path d="M7580 35813 c-8 -3 -135 -96 -282 -205 -236 -176 -269 -204 -277
-235 -7 -26 -7 -44 3 -67 7 -18 139 -187 292 -378 154 -190 555 -688 892
-1106 569 -707 615 -762 649 -768 20 -4 47 -3 60 2 13 5 105 69 203 142 156
116 181 138 191 170 7 25 7 45 1 62 -6 14 -120 185 -254 380 -600 872 -1228
1784 -1295 1881 -84 121 -121 145 -183 122z"/>
<path d="M11020 33566 c-112 -24 -194 -86 -242 -184 -30 -61 -33 -74 -32 -152
4 -236 165 -402 377 -388 274 18 409 285 274 541 -76 145 -222 216 -377 183z"/>
<path d="M9420 32783 c-66 -24 -152 -114 -176 -183 -81 -237 95 -489 341 -490
293 -1 416 367 197 587 -68 67 -138 97 -237 100 -54 2 -94 -3 -125 -14z"/>
<path d="M42645 27087 c-63 -21 -97 -42 -142 -89 -80 -82 -110 -196 -79 -302
26 -88 56 -125 189 -234 1078 -876 1736 -2130 1847 -3517 21 -268 12 -716 -21
-995 -101 -865 -443 -1717 -967 -2415 -206 -273 -552 -638 -797 -841 -779
-643 -1678 -1022 -2675 -1129 -315 -34 -785 -30 -1105 10 -466 58 -910 177
-1330 355 -169 72 -443 210 -585 294 -114 68 -153 80 -245 74 -249 -16 -378
-296 -233 -506 35 -51 105 -98 324 -218 673 -369 1495 -612 2231 -660 56 -4
106 -10 112 -13 7 -5 11 -167 11 -511 0 -278 0 -510 0 -516 0 -7 -39 -14 -102
-18 -650 -43 -1209 -195 -1418 -383 -95 -87 -123 -177 -81 -268 23 -51 123
-144 204 -189 261 -146 764 -261 1287 -293 190 -12 808 -8 955 5 531 50 964
157 1206 298 91 53 184 149 199 205 53 197 -188 376 -674 499 -145 37 -390 81
-526 95 -36 4 -72 9 -81 10 -9 2 -87 9 -173 16 l-156 12 0 519 c0 406 3 519
13 522 6 2 77 9 157 15 644 48 1362 249 1975 552 1097 541 1989 1428 2540
2524 136 271 217 463 305 722 204 601 301 1179 302 1808 1 288 -5 409 -33 660
-164 1480 -893 2819 -2049 3766 -69 56 -145 111 -170 122 -55 25 -161 31 -215
14z"/>
<path d="M9225 17416 c-190 -37 -567 -145 -592 -170 -1 -1 50 -2 115 -2 126 0
213 -19 317 -71 78 -39 300 -174 530 -321 444 -285 799 -488 1220 -696 1105
-548 2246 -914 3460 -1111 394 -64 663 -94 1250 -140 176 -14 345 -28 375 -30
30 -3 231 -19 445 -35 215 -17 410 -32 435 -35 25 -2 79 -7 120 -9 104 -8 325
-25 385 -31 28 -2 91 -7 140 -11 105 -7 271 -48 404 -99 617 -236 1080 -755
1242 -1392 64 -254 62 -188 55 -1885 -4 -845 -9 -1561 -11 -1590 -2 -29 -7
-348 -10 -708 -3 -360 -7 -725 -10 -810 -3 -85 -7 -252 -10 -371 l-5 -216 32
-7 c18 -4 116 -23 218 -42 102 -19 203 -39 226 -43 l40 -8 -3 2871 c-4 3145
-1 2970 -63 3212 -116 449 -389 843 -776 1120 -255 182 -590 311 -854 329 -52
3 -115 8 -140 11 -25 2 -162 13 -305 24 -143 11 -285 22 -315 25 -63 5 -66 5
-580 45 -212 17 -412 32 -445 35 -33 3 -172 14 -310 25 -215 18 -506 47 -625
64 -19 3 -87 12 -150 21 -799 110 -1698 336 -2490 625 -837 305 -1679 722
-2410 1193 -289 187 -430 236 -685 243 -100 2 -173 -1 -220 -10z"/>
<path d="M8542 15394 c-12 -8 -22 -23 -22 -32 0 -21 193 -413 320 -652 613
-1152 1295 -2128 2119 -3035 187 -206 663 -682 856 -856 844 -759 1678 -1347
2665 -1879 421 -226 788 -371 1505 -594 392 -121 1058 -305 1458 -402 l117
-28 22 21 c31 31 13 68 -39 82 -21 6 -148 38 -283 71 -860 215 -1750 492
-2255 702 -366 153 -1023 523 -1565 883 -546 363 -1003 717 -1515 1174 -208
186 -798 779 -991 996 -869 979 -1562 2012 -2185 3256 -123 248 -160 309 -183
309 -1 0 -12 -7 -24 -16z"/>
<path d="M35750 11262 c-148 -49 -254 -173 -278 -323 -43 -278 207 -521 478
-465 93 20 160 58 225 128 76 82 99 146 100 274 0 96 -2 103 -37 176 -45 91
-104 148 -196 191 -85 40 -205 48 -292 19z m247 -102 c60 -26 128 -94 159
-157 22 -44 27 -69 27 -127 0 -122 -57 -219 -165 -277 -56 -30 -72 -33 -143
-34 -68 0 -89 4 -137 28 -65 32 -121 90 -151 156 -31 68 -29 188 3 256 74 152
255 221 407 155z"/>
<path d="M32722 9983 c-139 -144 -147 -155 -133 -182 6 -11 21 -23 33 -27 18
-5 42 14 150 123 70 71 128 137 128 146 0 20 -34 57 -52 57 -7 0 -64 -53 -126
-117z"/>
<path d="M31834 10062 c-6 -4 -14 -16 -17 -26 -6 -15 19 -45 120 -147 126
-128 153 -145 181 -117 28 28 10 55 -111 176 -116 116 -144 134 -173 114z"/>
<path d="M32602 9298 c-28 -28 -10 -55 111 -176 128 -128 152 -141 181 -100
21 30 12 43 -125 176 -113 110 -141 126 -167 100z"/>
<path d="M31953 9179 c-65 -66 -122 -127 -127 -136 -15 -27 10 -63 43 -63 24
0 48 21 150 130 66 71 121 133 121 138 0 18 -32 52 -50 52 -10 0 -70 -53 -137
-121z"/>
</g>
</svg>
